<svg xmlns="http://www.w3.org/2000/svg" xmlns:xlink="http://www.w3.org/1999/xlink" width="1080" zoomAndPan="magnify" viewBox="0 0 810 1439.999935" height="1920" preserveAspectRatio="xMidYMid meet" version="1.0"><defs><g/><clipPath id="f5da5eb14a"><path d="M 62.703125 311.433594 L 747.453125 311.433594 L 747.453125 996.183594 L 62.703125 996.183594 Z M 62.703125 311.433594 " clip-rule="nonzero"/></clipPath><clipPath id="75bcde3858"><path d="M 360.734375 611.792969 L 444.601562 611.792969 L 444.601562 695.660156 L 360.734375 695.660156 Z M 360.734375 611.792969 " clip-rule="nonzero"/></clipPath><clipPath id="b5cadcaae4"><path d="M 402.667969 611.792969 C 379.507812 611.792969 360.734375 630.570312 360.734375 653.726562 C 360.734375 676.886719 379.507812 695.660156 402.667969 695.660156 C 425.828125 695.660156 444.601562 676.886719 444.601562 653.726562 C 444.601562 630.570312 425.828125 611.792969 402.667969 611.792969 Z M 402.667969 611.792969 " clip-rule="nonzero"/></clipPath><clipPath id="d856afcbfb"><path d="M 228.234375 1278.265625 L 581.765625 1278.265625 L 581.765625 1335.460938 L 228.234375 1335.460938 Z M 228.234375 1278.265625 " clip-rule="nonzero"/></clipPath><clipPath id="fd494c677b"><path d="M 377.628906 311.246094 L 432.378906 311.246094 L 432.378906 341.996094 L 377.628906 341.996094 Z M 377.628906 311.246094 " clip-rule="nonzero"/></clipPath><clipPath id="57cc25e7e8"><path d="M 655.453125 281.363281 L 758.953125 281.363281 L 758.953125 385.613281 L 655.453125 385.613281 Z M 655.453125 281.363281 " clip-rule="nonzero"/></clipPath><clipPath id="4191158fb4"><path d="M 29.226562 889.5625 L 132.726562 889.5625 L 132.726562 993.8125 L 29.226562 993.8125 Z M 29.226562 889.5625 " clip-rule="nonzero"/></clipPath><clipPath id="a1fd601ef4"><path d="M 46 305 L 57 305 L 57 320 L 46 320 Z M 46 305 " clip-rule="nonzero"/></clipPath><clipPath id="ee5d354f80"><path d="M 62.753906 249.355469 L 172.121094 284.085938 L 115.375 462.792969 L 6.007812 428.0625 Z M 62.753906 249.355469 " clip-rule="nonzero"/></clipPath><clipPath id="d2104c4faf"><path d="M 62.753906 249.355469 L 172.121094 284.085938 L 115.375 462.792969 L 6.007812 428.0625 Z M 62.753906 249.355469 " clip-rule="nonzero"/></clipPath><clipPath id="20f1278b38"><path d="M 81 292 L 93 292 L 93 304 L 81 304 Z M 81 292 " clip-rule="nonzero"/></clipPath><clipPath id="9bcd6f29af"><path d="M 62.753906 249.355469 L 172.121094 284.085938 L 115.375 462.792969 L 6.007812 428.0625 Z M 62.753906 249.355469 " clip-rule="nonzero"/></clipPath><clipPath id="44aa440351"><path d="M 62.753906 249.355469 L 172.121094 284.085938 L 115.375 462.792969 L 6.007812 428.0625 Z M 62.753906 249.355469 " clip-rule="nonzero"/></clipPath><clipPath id="b1871cb2d2"><path d="M 141 335 L 151 335 L 151 349 L 141 349 Z M 141 335 " clip-rule="nonzero"/></clipPath><clipPath id="3a22d5512f"><path d="M 62.753906 249.355469 L 172.121094 284.085938 L 115.375 462.792969 L 6.007812 428.0625 Z M 62.753906 249.355469 " clip-rule="nonzero"/></clipPath><clipPath id="527e8dbd1c"><path d="M 62.753906 249.355469 L 172.121094 284.085938 L 115.375 462.792969 L 6.007812 428.0625 Z M 62.753906 249.355469 " clip-rule="nonzero"/></clipPath><clipPath id="60e83cc964"><path d="M 68 390 L 79 390 L 79 402 L 68 402 Z M 68 390 " clip-rule="nonzero"/></clipPath><clipPath id="d7b0eb2373"><path d="M 62.753906 249.355469 L 172.121094 284.085938 L 115.375 462.792969 L 6.007812 428.0625 Z M 62.753906 249.355469 " clip-rule="nonzero"/></clipPath><clipPath id="aa2f011fa1"><path d="M 62.753906 249.355469 L 172.121094 284.085938 L 115.375 462.792969 L 6.007812 428.0625 Z M 62.753906 249.355469 " clip-rule="nonzero"/></clipPath><clipPath id="d2496aedb5"><path d="M 115 382 L 125 382 L 125 394 L 115 394 Z M 115 382 " clip-rule="nonzero"/></clipPath><clipPath id="cd66c9aa59"><path d="M 62.753906 249.355469 L 172.121094 284.085938 L 115.375 462.792969 L 6.007812 428.0625 Z M 62.753906 249.355469 " clip-rule="nonzero"/></clipPath><clipPath id="dad2ea139e"><path d="M 62.753906 249.355469 L 172.121094 284.085938 L 115.375 462.792969 L 6.007812 428.0625 Z M 62.753906 249.355469 " clip-rule="nonzero"/></clipPath><clipPath id="ac9d661f60"><path d="M 98 319 L 109 319 L 109 330 L 98 330 Z M 98 319 " clip-rule="nonzero"/></clipPath><clipPath id="41c0c172df"><path d="M 62.753906 249.355469 L 172.121094 284.085938 L 115.375 462.792969 L 6.007812 428.0625 Z M 62.753906 249.355469 " clip-rule="nonzero"/></clipPath><clipPath id="b6552bfe99"><path d="M 62.753906 249.355469 L 172.121094 284.085938 L 115.375 462.792969 L 6.007812 428.0625 Z M 62.753906 249.355469 " clip-rule="nonzero"/></clipPath><clipPath id="12a7e9dd0f"><path d="M 130 272 L 140 272 L 140 282 L 130 282 Z M 130 272 " clip-rule="nonzero"/></clipPath><clipPath id="64ef169772"><path d="M 62.753906 249.355469 L 172.121094 284.085938 L 115.375 462.792969 L 6.007812 428.0625 Z M 62.753906 249.355469 " clip-rule="nonzero"/></clipPath><clipPath id="5d9508412e"><path d="M 62.753906 249.355469 L 172.121094 284.085938 L 115.375 462.792969 L 6.007812 428.0625 Z M 62.753906 249.355469 " clip-rule="nonzero"/></clipPath><clipPath id="ac3b33ab32"><path d="M 64 355 L 74 355 L 74 365 L 64 365 Z M 64 355 " clip-rule="nonzero"/></clipPath><clipPath id="614799bb51"><path d="M 62.753906 249.355469 L 172.121094 284.085938 L 115.375 462.792969 L 6.007812 428.0625 Z M 62.753906 249.355469 " clip-rule="nonzero"/></clipPath><clipPath id="16d3001192"><path d="M 62.753906 249.355469 L 172.121094 284.085938 L 115.375 462.792969 L 6.007812 428.0625 Z M 62.753906 249.355469 " clip-rule="nonzero"/></clipPath><clipPath id="2a5f51f65b"><path d="M 31 424 L 39 424 L 39 434 L 31 434 Z M 31 424 " clip-rule="nonzero"/></clipPath><clipPath id="b8063db700"><path d="M 62.753906 249.355469 L 172.121094 284.085938 L 115.375 462.792969 L 6.007812 428.0625 Z M 62.753906 249.355469 " clip-rule="nonzero"/></clipPath><clipPath id="541f206da5"><path d="M 62.753906 249.355469 L 172.121094 284.085938 L 115.375 462.792969 L 6.007812 428.0625 Z M 62.753906 249.355469 " clip-rule="nonzero"/></clipPath><clipPath id="6d20c6742f"><path d="M 24 371 L 33 371 L 33 380 L 24 380 Z M 24 371 " clip-rule="nonzero"/></clipPath><clipPath id="603ed37659"><path d="M 62.753906 249.355469 L 172.121094 284.085938 L 115.375 462.792969 L 6.007812 428.0625 Z M 62.753906 249.355469 " clip-rule="nonzero"/></clipPath><clipPath id="c3bbb995c6"><path d="M 62.753906 249.355469 L 172.121094 284.085938 L 115.375 462.792969 L 6.007812 428.0625 Z M 62.753906 249.355469 " clip-rule="nonzero"/></clipPath><clipPath id="777c8360cb"><path d="M 762 857 L 777 857 L 777 873 L 762 873 Z M 762 857 " clip-rule="nonzero"/></clipPath><clipPath id="c9eb1573b9"><path d="M 673.59375 1055.011719 L 602.441406 996.292969 L 741.359375 827.960938 L 812.507812 886.679688 Z M 673.59375 1055.011719 " clip-rule="nonzero"/></clipPath><clipPath id="332085c1b6"><path d="M 673.59375 1055.011719 L 602.441406 996.292969 L 741.359375 827.960938 L 812.507812 886.679688 Z M 673.59375 1055.011719 " clip-rule="nonzero"/></clipPath><clipPath id="392f3ded52"><path d="M 701 991 L 715 991 L 715 1008 L 701 1008 Z M 701 991 " clip-rule="nonzero"/></clipPath><clipPath id="9228bd1ab8"><path d="M 673.59375 1055.011719 L 602.441406 996.292969 L 741.359375 827.960938 L 812.507812 886.679688 Z M 673.59375 1055.011719 " clip-rule="nonzero"/></clipPath><clipPath id="0f65fa5391"><path d="M 673.59375 1055.011719 L 602.441406 996.292969 L 741.359375 827.960938 L 812.507812 886.679688 Z M 673.59375 1055.011719 " clip-rule="nonzero"/></clipPath><clipPath id="106c711dd2"><path d="M 610 985 L 626 985 L 626 999 L 610 999 Z M 610 985 " clip-rule="nonzero"/></clipPath><clipPath id="0252a4e588"><path d="M 673.59375 1055.011719 L 602.441406 996.292969 L 741.359375 827.960938 L 812.507812 886.679688 Z M 673.59375 1055.011719 " clip-rule="nonzero"/></clipPath><clipPath id="1e604c2b79"><path d="M 673.59375 1055.011719 L 602.441406 996.292969 L 741.359375 827.960938 L 812.507812 886.679688 Z M 673.59375 1055.011719 " clip-rule="nonzero"/></clipPath><clipPath id="2589e6127b"><path d="M 668 979 L 680 979 L 680 991 L 668 991 Z M 668 979 " clip-rule="nonzero"/></clipPath><clipPath id="93e0a6268d"><path d="M 673.59375 1055.011719 L 602.441406 996.292969 L 741.359375 827.960938 L 812.507812 886.679688 Z M 673.59375 1055.011719 " clip-rule="nonzero"/></clipPath><clipPath id="503f65e46c"><path d="M 673.59375 1055.011719 L 602.441406 996.292969 L 741.359375 827.960938 L 812.507812 886.679688 Z M 673.59375 1055.011719 " clip-rule="nonzero"/></clipPath><clipPath id="32b6fdd88e"><path d="M 690 889 L 703 889 L 703 901 L 690 901 Z M 690 889 " clip-rule="nonzero"/></clipPath><clipPath id="43246d3033"><path d="M 673.59375 1055.011719 L 602.441406 996.292969 L 741.359375 827.960938 L 812.507812 886.679688 Z M 673.59375 1055.011719 " clip-rule="nonzero"/></clipPath><clipPath id="1f9d2d5b4e"><path d="M 673.59375 1055.011719 L 602.441406 996.292969 L 741.359375 827.960938 L 812.507812 886.679688 Z M 673.59375 1055.011719 " clip-rule="nonzero"/></clipPath><clipPath id="8acfac5787"><path d="M 652 955 L 663 955 L 663 966 L 652 966 Z M 652 955 " clip-rule="nonzero"/></clipPath><clipPath id="68f53ee56d"><path d="M 673.59375 1055.011719 L 602.441406 996.292969 L 741.359375 827.960938 L 812.507812 886.679688 Z M 673.59375 1055.011719 " clip-rule="nonzero"/></clipPath><clipPath id="c8fbaa1f2c"><path d="M 673.59375 1055.011719 L 602.441406 996.292969 L 741.359375 827.960938 L 812.507812 886.679688 Z M 673.59375 1055.011719 " clip-rule="nonzero"/></clipPath><clipPath id="a843618e3d"><path d="M 715 946 L 726 946 L 726 957 L 715 957 Z M 715 946 " clip-rule="nonzero"/></clipPath><clipPath id="0615f31e18"><path d="M 673.59375 1055.011719 L 602.441406 996.292969 L 741.359375 827.960938 L 812.507812 886.679688 Z M 673.59375 1055.011719 " clip-rule="nonzero"/></clipPath><clipPath id="f512bcad95"><path d="M 673.59375 1055.011719 L 602.441406 996.292969 L 741.359375 827.960938 L 812.507812 886.679688 Z M 673.59375 1055.011719 " clip-rule="nonzero"/></clipPath><clipPath id="8e7b1b6b12"><path d="M 697 919 L 707 919 L 707 929 L 697 929 Z M 697 919 " clip-rule="nonzero"/></clipPath><clipPath id="72dc2065e8"><path d="M 673.59375 1055.011719 L 602.441406 996.292969 L 741.359375 827.960938 L 812.507812 886.679688 Z M 673.59375 1055.011719 " clip-rule="nonzero"/></clipPath><clipPath id="17847e65f2"><path d="M 673.59375 1055.011719 L 602.441406 996.292969 L 741.359375 827.960938 L 812.507812 886.679688 Z M 673.59375 1055.011719 " clip-rule="nonzero"/></clipPath><clipPath id="c06bda59cc"><path d="M 756 900 L 765 900 L 765 910 L 756 910 Z M 756 900 " clip-rule="nonzero"/></clipPath><clipPath id="f8fa89160e"><path d="M 673.59375 1055.011719 L 602.441406 996.292969 L 741.359375 827.960938 L 812.507812 886.679688 Z M 673.59375 1055.011719 " clip-rule="nonzero"/></clipPath><clipPath id="6705e13149"><path d="M 673.59375 1055.011719 L 602.441406 996.292969 L 741.359375 827.960938 L 812.507812 886.679688 Z M 673.59375 1055.011719 " clip-rule="nonzero"/></clipPath></defs><rect x="-81" width="972" fill="#ffffff" y="-143.999994" height="1727.999922" fill-opacity="1"/><rect x="-81" width="972" fill="#f0e9e6" y="-143.999994" height="1727.999922" fill-opacity="1"/><g clip-path="url(#f5da5eb14a)"><path fill="#303b31" d="M 747.433594 653.796875 C 747.433594 659.398438 747.296875 665 747.019531 670.597656 C 746.746094 676.191406 746.332031 681.777344 745.785156 687.355469 C 745.234375 692.929688 744.550781 698.488281 743.726562 704.03125 C 742.90625 709.574219 741.949219 715.09375 740.855469 720.589844 C 739.761719 726.085938 738.535156 731.550781 737.171875 736.984375 C 735.8125 742.417969 734.316406 747.816406 732.691406 753.179688 C 731.066406 758.542969 729.308594 763.859375 727.417969 769.136719 C 725.53125 774.410156 723.515625 779.636719 721.371094 784.8125 C 719.226562 789.992188 716.957031 795.113281 714.5625 800.175781 C 712.167969 805.242188 709.648438 810.246094 707.007812 815.1875 C 704.367188 820.128906 701.605469 825 698.722656 829.808594 C 695.84375 834.613281 692.847656 839.34375 689.734375 844.003906 C 686.621094 848.664062 683.394531 853.242188 680.058594 857.742188 C 676.71875 862.242188 673.273438 866.660156 669.71875 870.992188 C 666.164062 875.320312 662.507812 879.5625 658.742188 883.714844 C 654.980469 887.867188 651.117188 891.921875 647.15625 895.886719 C 643.195312 899.847656 639.136719 903.710938 634.988281 907.472656 C 630.835938 911.234375 626.59375 914.894531 622.261719 918.449219 C 617.929688 922.003906 613.515625 925.449219 609.015625 928.785156 C 604.515625 932.125 599.933594 935.351562 595.277344 938.460938 C 590.617188 941.574219 585.886719 944.570312 581.078125 947.453125 C 576.273438 950.332031 571.398438 953.09375 566.457031 955.734375 C 561.515625 958.375 556.511719 960.894531 551.449219 963.289062 C 546.382812 965.6875 541.261719 967.957031 536.085938 970.101562 C 530.910156 972.246094 525.683594 974.261719 520.40625 976.148438 C 515.132812 978.035156 509.8125 979.792969 504.453125 981.417969 C 499.089844 983.046875 493.691406 984.539062 488.257812 985.902344 C 482.820312 987.261719 477.355469 988.488281 471.859375 989.582031 C 466.367188 990.675781 460.847656 991.632812 455.304688 992.457031 C 449.761719 993.277344 444.203125 993.964844 438.625 994.511719 C 433.050781 995.0625 427.464844 995.472656 421.867188 995.75 C 416.269531 996.023438 410.671875 996.160156 405.070312 996.160156 C 399.464844 996.160156 393.867188 996.023438 388.269531 995.75 C 382.671875 995.472656 377.085938 995.0625 371.511719 994.511719 C 365.933594 993.964844 360.375 993.277344 354.832031 992.457031 C 349.292969 991.632812 343.773438 990.675781 338.277344 989.582031 C 332.78125 988.488281 327.316406 987.261719 321.882812 985.902344 C 316.445312 984.539062 311.046875 983.046875 305.6875 981.417969 C 300.324219 979.792969 295.003906 978.035156 289.730469 976.148438 C 284.453125 974.261719 279.226562 972.246094 274.050781 970.101562 C 268.875 967.957031 263.753906 965.6875 258.6875 963.289062 C 253.625 960.894531 248.621094 958.375 243.679688 955.734375 C 238.738281 953.09375 233.863281 950.332031 229.058594 947.453125 C 224.253906 944.570312 219.519531 941.574219 214.859375 938.460938 C 210.203125 935.351562 205.621094 932.125 201.121094 928.785156 C 196.621094 925.449219 192.207031 922.003906 187.875 918.449219 C 183.542969 914.894531 179.300781 911.234375 175.152344 907.472656 C 171 903.710938 166.941406 899.847656 162.980469 895.886719 C 159.019531 891.921875 155.15625 887.867188 151.394531 883.714844 C 147.628906 879.5625 143.972656 875.320312 140.417969 870.992188 C 136.863281 866.660156 133.417969 862.242188 130.078125 857.742188 C 126.742188 853.242188 123.515625 848.664062 120.402344 844.003906 C 117.289062 839.34375 114.292969 834.613281 111.414062 829.808594 C 108.53125 825 105.773438 820.128906 103.128906 815.1875 C 100.488281 810.246094 97.96875 805.242188 95.574219 800.175781 C 93.179688 795.113281 90.910156 789.992188 88.765625 784.8125 C 86.621094 779.636719 84.605469 774.410156 82.71875 769.136719 C 80.828125 763.859375 79.074219 758.542969 77.445312 753.179688 C 75.820312 747.816406 74.324219 742.417969 72.964844 736.984375 C 71.601562 731.550781 70.375 726.085938 69.28125 720.589844 C 68.191406 715.09375 67.230469 709.574219 66.410156 704.03125 C 65.585938 698.488281 64.902344 692.929688 64.351562 687.355469 C 63.804688 681.777344 63.390625 676.191406 63.117188 670.597656 C 62.839844 665 62.703125 659.398438 62.703125 653.796875 C 62.703125 648.195312 62.839844 642.59375 63.117188 636.996094 C 63.390625 631.402344 63.804688 625.816406 64.351562 620.238281 C 64.902344 614.664062 65.585938 609.105469 66.410156 603.5625 C 67.230469 598.019531 68.191406 592.5 69.28125 587.003906 C 70.375 581.507812 71.601562 576.042969 72.964844 570.609375 C 74.324219 565.175781 75.820312 559.777344 77.445312 554.414062 C 79.074219 549.050781 80.828125 543.734375 82.71875 538.457031 C 84.605469 533.183594 86.621094 527.957031 88.765625 522.78125 C 90.910156 517.601562 93.179688 512.480469 95.574219 507.417969 C 97.96875 502.351562 100.488281 497.347656 103.128906 492.40625 C 105.773438 487.464844 108.53125 482.59375 111.414062 477.785156 C 114.292969 472.980469 117.289062 468.25 120.402344 463.589844 C 123.515625 458.929688 126.742188 454.351562 130.078125 449.851562 C 133.417969 445.351562 136.863281 440.933594 140.417969 436.601562 C 143.972656 432.273438 147.628906 428.03125 151.394531 423.878906 C 155.15625 419.726562 159.019531 415.671875 162.980469 411.707031 C 166.941406 407.746094 171 403.882812 175.152344 400.121094 C 179.300781 396.359375 183.542969 392.699219 187.875 389.144531 C 192.207031 385.589844 196.621094 382.144531 201.121094 378.808594 C 205.621094 375.46875 210.203125 372.246094 214.859375 369.132812 C 219.519531 366.019531 224.253906 363.023438 229.058594 360.140625 C 233.863281 357.261719 238.738281 354.5 243.679688 351.859375 C 248.621094 349.21875 253.625 346.699219 258.6875 344.304688 C 263.753906 341.90625 268.875 339.636719 274.050781 337.492188 C 279.226562 335.347656 284.453125 333.332031 289.730469 331.445312 C 295.003906 329.558594 300.324219 327.800781 305.6875 326.175781 C 311.046875 324.546875 316.445312 323.054688 321.882812 321.691406 C 327.316406 320.332031 332.78125 319.105469 338.277344 318.011719 C 343.773438 316.917969 349.292969 315.960938 354.832031 315.136719 C 360.375 314.316406 365.933594 313.628906 371.511719 313.082031 C 377.085938 312.53125 382.671875 312.121094 388.269531 311.84375 C 393.867188 311.570312 399.464844 311.433594 405.070312 311.433594 C 410.671875 311.433594 416.269531 311.570312 421.867188 311.84375 C 427.464844 312.121094 433.050781 312.53125 438.625 313.082031 C 444.203125 313.628906 449.761719 314.316406 455.304688 315.136719 C 460.847656 315.960938 466.367188 316.917969 471.859375 318.011719 C 477.355469 319.105469 482.820312 320.332031 488.257812 321.691406 C 493.691406 323.054688 499.089844 324.546875 504.453125 326.175781 C 509.8125 327.800781 515.132812 329.558594 520.40625 331.445312 C 525.683594 333.332031 530.910156 335.347656 536.085938 337.492188 C 541.261719 339.636719 546.382812 341.90625 551.449219 344.304688 C 556.511719 346.699219 561.515625 349.21875 566.457031 351.859375 C 571.398438 354.5 576.273438 357.261719 581.078125 360.140625 C 585.886719 363.023438 590.617188 366.019531 595.277344 369.132812 C 599.933594 372.246094 604.515625 375.46875 609.015625 378.808594 C 613.515625 382.144531 617.929688 385.589844 622.261719 389.144531 C 626.59375 392.699219 630.835938 396.359375 634.988281 400.121094 C 639.136719 403.882812 643.195312 407.746094 647.15625 411.707031 C 651.117188 415.671875 654.980469 419.726562 658.742188 423.878906 C 662.507812 428.03125 666.164062 432.273438 669.71875 436.601562 C 673.273438 440.933594 676.71875 445.351562 680.058594 449.851562 C 683.394531 454.351562 686.621094 458.929688 689.734375 463.589844 C 692.847656 468.25 695.84375 472.980469 698.722656 477.785156 C 701.605469 482.59375 704.367188 487.464844 707.007812 492.40625 C 709.648438 497.347656 712.167969 502.351562 714.5625 507.417969 C 716.957031 512.484375 719.226562 517.601562 721.371094 522.78125 C 723.515625 527.957031 725.53125 533.183594 727.417969 538.457031 C 729.308594 543.734375 731.066406 549.050781 732.691406 554.414062 C 734.316406 559.777344 735.8125 565.175781 737.171875 570.609375 C 738.535156 576.042969 739.761719 581.507812 740.855469 587.003906 C 741.949219 592.5 742.90625 598.019531 743.726562 603.5625 C 744.550781 609.105469 745.234375 614.664062 745.785156 620.238281 C 746.332031 625.816406 746.746094 631.402344 747.019531 636.996094 C 747.296875 642.59375 747.433594 648.195312 747.433594 653.796875 Z M 747.433594 653.796875 " fill-opacity="1" fill-rule="nonzero"/></g><path fill="#ffffff" d="M 743.089844 653.796875 C 743.089844 659.328125 742.953125 664.859375 742.683594 670.382812 C 742.410156 675.90625 742.003906 681.421875 741.460938 686.929688 C 740.917969 692.433594 740.242188 697.921875 739.429688 703.394531 C 738.617188 708.867188 737.671875 714.316406 736.59375 719.742188 C 735.515625 725.167969 734.304688 730.5625 732.957031 735.929688 C 731.613281 741.296875 730.140625 746.625 728.535156 751.917969 C 726.929688 757.210938 725.191406 762.464844 723.328125 767.671875 C 721.464844 772.882812 719.476562 778.039062 717.359375 783.152344 C 715.242188 788.261719 713 793.320312 710.636719 798.320312 C 708.269531 803.320312 705.785156 808.261719 703.175781 813.136719 C 700.566406 818.015625 697.84375 822.828125 695 827.574219 C 692.15625 832.320312 689.195312 836.992188 686.121094 841.589844 C 683.050781 846.191406 679.863281 850.710938 676.570312 855.15625 C 673.273438 859.597656 669.871094 863.957031 666.363281 868.234375 C 662.851562 872.511719 659.238281 876.699219 655.523438 880.796875 C 651.808594 884.894531 647.996094 888.902344 644.085938 892.8125 C 640.171875 896.726562 636.167969 900.539062 632.070312 904.253906 C 627.96875 907.96875 623.78125 911.582031 619.507812 915.089844 C 615.230469 918.597656 610.871094 922.003906 606.425781 925.296875 C 601.984375 928.59375 597.460938 931.777344 592.863281 934.851562 C 588.261719 937.925781 583.589844 940.882812 578.847656 943.726562 C 574.101562 946.570312 569.289062 949.296875 564.410156 951.902344 C 559.53125 954.511719 554.59375 957 549.589844 959.363281 C 544.589844 961.730469 539.535156 963.96875 534.421875 966.085938 C 529.3125 968.203125 524.152344 970.195312 518.945312 972.058594 C 513.734375 973.921875 508.484375 975.65625 503.191406 977.261719 C 497.898438 978.867188 492.566406 980.34375 487.199219 981.6875 C 481.835938 983.03125 476.4375 984.242188 471.011719 985.324219 C 465.585938 986.402344 460.140625 987.347656 454.667969 988.160156 C 449.195312 988.96875 443.707031 989.648438 438.199219 990.191406 C 432.695312 990.730469 427.179688 991.140625 421.65625 991.410156 C 416.128906 991.679688 410.601562 991.816406 405.070312 991.816406 C 399.535156 991.816406 394.007812 991.679688 388.484375 991.410156 C 382.957031 991.140625 377.441406 990.730469 371.9375 990.191406 C 366.429688 989.648438 360.941406 988.96875 355.472656 988.160156 C 350 987.347656 344.550781 986.402344 339.125 985.324219 C 333.699219 984.242188 328.300781 983.03125 322.9375 981.6875 C 317.570312 980.34375 312.242188 978.867188 306.945312 977.261719 C 301.652344 975.65625 296.402344 973.921875 291.191406 972.058594 C 285.984375 970.195312 280.824219 968.203125 275.714844 966.085938 C 270.601562 963.96875 265.546875 961.730469 260.546875 959.363281 C 255.546875 957 250.605469 954.511719 245.726562 951.902344 C 240.847656 949.296875 236.035156 946.570312 231.292969 943.726562 C 226.546875 940.882812 221.875 937.925781 217.273438 934.851562 C 212.675781 931.777344 208.152344 928.59375 203.710938 925.296875 C 199.265625 922 194.90625 918.597656 190.632812 915.089844 C 186.355469 911.582031 182.167969 907.96875 178.066406 904.253906 C 173.96875 900.539062 169.964844 896.726562 166.050781 892.8125 C 162.140625 888.902344 158.328125 884.894531 154.613281 880.796875 C 150.898438 876.699219 147.285156 872.511719 143.777344 868.234375 C 140.265625 863.957031 136.863281 859.597656 133.566406 855.15625 C 130.273438 850.710938 127.089844 846.191406 124.015625 841.589844 C 120.941406 836.992188 117.984375 832.320312 115.140625 827.574219 C 112.296875 822.828125 109.570312 818.015625 106.960938 813.136719 C 104.355469 808.261719 101.867188 803.320312 99.503906 798.320312 C 97.136719 793.320312 94.894531 788.261719 92.777344 783.152344 C 90.660156 778.039062 88.671875 772.882812 86.808594 767.671875 C 84.945312 762.464844 83.210938 757.210938 81.601562 751.917969 C 79.996094 746.625 78.523438 741.296875 77.179688 735.929688 C 75.835938 730.5625 74.621094 725.167969 73.542969 719.742188 C 72.464844 714.316406 71.519531 708.867188 70.707031 703.394531 C 69.894531 697.921875 69.21875 692.433594 68.675781 686.929688 C 68.132812 681.421875 67.726562 675.90625 67.457031 670.382812 C 67.183594 664.859375 67.046875 659.328125 67.046875 653.796875 C 67.046875 648.265625 67.183594 642.738281 67.457031 637.210938 C 67.726562 631.6875 68.132812 626.171875 68.675781 620.664062 C 69.21875 615.160156 69.894531 609.671875 70.707031 604.199219 C 71.519531 598.726562 72.464844 593.277344 73.542969 587.851562 C 74.621094 582.425781 75.835938 577.03125 77.179688 571.664062 C 78.523438 566.296875 79.996094 560.96875 81.601562 555.675781 C 83.210938 550.382812 84.945312 545.128906 86.808594 539.921875 C 88.671875 534.710938 90.660156 529.554688 92.777344 524.441406 C 94.894531 519.332031 97.136719 514.277344 99.503906 509.273438 C 101.867188 504.273438 104.355469 499.335938 106.960938 494.457031 C 109.570312 489.578125 112.296875 484.765625 115.140625 480.019531 C 117.984375 475.273438 120.941406 470.601562 124.015625 466.003906 C 127.089844 461.402344 130.273438 456.882812 133.566406 452.4375 C 136.863281 447.996094 140.265625 443.636719 143.777344 439.359375 C 147.285156 435.082031 150.898438 430.894531 154.613281 426.796875 C 158.328125 422.699219 162.140625 418.691406 166.050781 414.78125 C 169.964844 410.867188 173.96875 407.054688 178.066406 403.339844 C 182.167969 399.625 186.355469 396.011719 190.632812 392.503906 C 194.90625 388.996094 199.265625 385.59375 203.710938 382.296875 C 208.152344 379 212.675781 375.816406 217.273438 372.742188 C 221.875 369.671875 226.546875 366.710938 231.292969 363.867188 C 236.035156 361.023438 240.847656 358.296875 245.726562 355.691406 C 250.605469 353.082031 255.546875 350.59375 260.546875 348.230469 C 265.546875 345.863281 270.601562 343.625 275.714844 341.507812 C 280.824219 339.390625 285.984375 337.398438 291.191406 335.535156 C 296.402344 333.671875 301.652344 331.9375 306.945312 330.332031 C 312.242188 328.726562 317.570312 327.25 322.9375 325.90625 C 328.300781 324.5625 333.699219 323.351562 339.125 322.273438 C 344.550781 321.191406 350 320.246094 355.472656 319.433594 C 360.941406 318.625 366.429688 317.945312 371.9375 317.40625 C 377.441406 316.863281 382.957031 316.457031 388.484375 316.183594 C 394.007812 315.914062 399.535156 315.777344 405.070312 315.777344 C 410.601562 315.777344 416.128906 315.914062 421.65625 316.183594 C 427.179688 316.457031 432.695312 316.863281 438.199219 317.40625 C 443.707031 317.945312 449.195312 318.625 454.667969 319.433594 C 460.140625 320.246094 465.585938 321.191406 471.011719 322.273438 C 476.4375 323.351562 481.835938 324.5625 487.199219 325.90625 C 492.566406 327.25 497.898438 328.726562 503.191406 330.332031 C 508.484375 331.9375 513.734375 333.671875 518.945312 335.535156 C 524.152344 337.398438 529.3125 339.390625 534.421875 341.507812 C 539.535156 343.625 544.589844 345.863281 549.589844 348.230469 C 554.59375 350.59375 559.53125 353.082031 564.410156 355.691406 C 569.289062 358.296875 574.101562 361.023438 578.847656 363.867188 C 583.589844 366.710938 588.261719 369.671875 592.863281 372.742188 C 597.460938 375.816406 601.984375 379 606.425781 382.296875 C 610.871094 385.59375 615.230469 388.996094 619.507812 392.503906 C 623.78125 396.011719 627.96875 399.625 632.070312 403.339844 C 636.167969 407.054688 640.171875 410.867188 644.085938 414.78125 C 647.996094 418.691406 651.808594 422.699219 655.523438 426.796875 C 659.242188 430.894531 662.851562 435.082031 666.363281 439.359375 C 669.871094 443.636719 673.273438 447.996094 676.570312 452.4375 C 679.863281 456.882812 683.050781 461.402344 686.121094 466.003906 C 689.195312 470.601562 692.15625 475.273438 695 480.019531 C 697.84375 484.765625 700.566406 489.578125 703.175781 494.457031 C 705.785156 499.335938 708.269531 504.273438 710.636719 509.273438 C 713 514.277344 715.242188 519.332031 717.359375 524.441406 C 719.476562 529.554688 721.464844 534.710938 723.328125 539.921875 C 725.191406 545.128906 726.929688 550.382812 728.535156 555.675781 C 730.140625 560.96875 731.613281 566.296875 732.957031 571.664062 C 734.304688 577.03125 735.515625 582.425781 736.59375 587.851562 C 737.671875 593.277344 738.617188 598.726562 739.429688 604.199219 C 740.242188 609.671875 740.917969 615.160156 741.460938 620.664062 C 742.003906 626.171875 742.410156 631.6875 742.683594 637.210938 C 742.953125 642.738281 743.089844 648.265625 743.089844 653.796875 Z M 743.089844 653.796875 " fill-opacity="1" fill-rule="nonzero"/><path fill="#c2bb7b" d="M 616.746094 415.300781 C 536.46875 344.207031 424.898438 318.015625 321.46875 346.097656 L 408.449219 639.929688 Z M 616.746094 415.300781 " fill-opacity="1" fill-rule="nonzero"/><path fill="#eccec9" d="M 307.949219 350.101562 C 203.480469 383.523438 122.871094 469.25 95.875 575.757812 L 395.019531 644.234375 Z M 307.949219 350.101562 " fill-opacity="1" fill-rule="nonzero"/><path fill="#eccec9" d="M 502.433594 957.417969 C 606.800781 923.933594 687.320312 838.234375 714.28125 731.78125 L 415.386719 663.359375 Z M 502.433594 957.417969 " fill-opacity="1" fill-rule="nonzero"/><path fill="#e0caa6" d="M 717.4375 718.039062 C 728.039062 666.628906 725.695312 613.023438 710.550781 562.398438 C 694.898438 510.089844 666.078125 462.632812 627.09375 424.878906 L 418.664062 649.648438 Z M 717.4375 718.039062 " fill-opacity="1" fill-rule="nonzero"/><path fill="#c2bb7b" d="M 193.535156 892.425781 C 273.867188 963.476562 385.480469 989.597656 488.917969 961.429688 L 401.957031 667.667969 Z M 193.535156 892.425781 " fill-opacity="1" fill-rule="nonzero"/><path fill="#e0caa6" d="M 92.714844 589.496094 C 82.097656 640.925781 84.4375 694.550781 99.589844 745.199219 C 115.257812 797.570312 144.128906 845.078125 183.183594 882.851562 L 391.742188 657.949219 Z M 92.714844 589.496094 " fill-opacity="1" fill-rule="nonzero"/><g fill="#303b31" fill-opacity="1"><g transform="translate(442.036433, 845.347105)"><g><path d="M -12.078125 88.3125 L -22.546875 2.765625 L -12 1.46875 L -3.140625 73.875 L 6.8125 69.40625 L 8.03125 79.34375 Z M -12.078125 88.3125 "/></g></g></g><g fill="#303b31" fill-opacity="1"><g transform="translate(412.476936, 849.658356)"><g><path d="M -22.890625 -2.703125 C -18.941406 -2.378906 -15.582031 -1.21875 -12.8125 0.78125 C -10.050781 2.789062 -8.019531 5.484375 -6.71875 8.859375 C -5.425781 12.242188 -4.960938 16.15625 -5.328125 20.59375 L -8.875 64.203125 C -9.226562 68.566406 -10.316406 72.3125 -12.140625 75.4375 C -13.972656 78.570312 -16.414062 80.898438 -19.46875 82.421875 C -22.519531 83.953125 -26.019531 84.554688 -29.96875 84.234375 C -33.914062 83.921875 -37.269531 82.757812 -40.03125 80.75 C -42.800781 78.75 -44.832031 76.054688 -46.125 72.671875 C -47.414062 69.296875 -47.878906 65.390625 -47.515625 60.953125 L -43.96875 17.34375 C -43.613281 12.976562 -42.523438 9.226562 -40.703125 6.09375 C -38.878906 2.96875 -36.425781 0.644531 -33.34375 -0.875 C -30.257812 -2.40625 -26.773438 -3.015625 -22.890625 -2.703125 Z M -23.6875 7.15625 C -26.25 6.945312 -28.382812 7.75 -30.09375 9.5625 C -31.8125 11.382812 -32.820312 14.097656 -33.125 17.703125 L -36.765625 62.453125 C -37.054688 66.054688 -36.5 68.890625 -35.09375 70.953125 C -33.695312 73.023438 -31.71875 74.164062 -29.15625 74.375 C -26.59375 74.582031 -24.453125 73.78125 -22.734375 71.96875 C -21.023438 70.15625 -20.023438 67.445312 -19.734375 63.84375 L -16.09375 19.09375 C -15.789062 15.488281 -16.335938 12.648438 -17.734375 10.578125 C -19.140625 8.503906 -21.125 7.363281 -23.6875 7.15625 Z M -23.6875 7.15625 "/></g></g></g><g fill="#303b31" fill-opacity="1"><g transform="translate(367.332729, 848.228158)"><g><path d="M -37.484375 39.515625 C -34.390625 40.765625 -31.945312 42.378906 -30.15625 44.359375 C -28.375 46.347656 -27.289062 48.582031 -26.90625 51.0625 C -26.519531 53.550781 -26.859375 56.113281 -27.921875 58.75 L -30.640625 65.53125 C -31.679688 68.101562 -33.191406 70.128906 -35.171875 71.609375 C -37.160156 73.097656 -39.492188 73.957031 -42.171875 74.1875 C -44.847656 74.425781 -47.734375 73.921875 -50.828125 72.671875 C -53.921875 71.421875 -56.359375 69.800781 -58.140625 67.8125 C -59.921875 65.820312 -61.003906 63.585938 -61.390625 61.109375 C -61.785156 58.628906 -61.453125 56.070312 -60.390625 53.4375 L -57.703125 46.75 C -56.640625 44.113281 -55.109375 42.035156 -53.109375 40.515625 C -51.109375 38.992188 -48.773438 38.132812 -46.109375 37.9375 C -43.453125 37.738281 -40.578125 38.265625 -37.484375 39.515625 Z M -83.375 58.671875 L -91.3125 55.484375 L -16.71875 -6.734375 L -8.703125 -3.5 Z M -40.4375 46.875 C -42.375 46.09375 -44.054688 46.03125 -45.484375 46.6875 C -46.910156 47.351562 -48 48.617188 -48.75 50.484375 L -51.359375 56.96875 C -52.109375 58.832031 -52.1875 60.519531 -51.59375 62.03125 C -51 63.539062 -49.769531 64.671875 -47.90625 65.421875 C -46.03125 66.171875 -44.367188 66.195312 -42.921875 65.5 C -41.484375 64.8125 -40.390625 63.535156 -39.640625 61.671875 L -37.03125 55.1875 C -36.28125 53.320312 -36.191406 51.65625 -36.765625 50.1875 C -37.335938 48.726562 -38.5625 47.625 -40.4375 46.875 Z M -49.46875 -20.8125 C -46.382812 -19.5625 -43.929688 -17.9375 -42.109375 -15.9375 C -40.296875 -13.945312 -39.191406 -11.707031 -38.796875 -9.21875 C -38.410156 -6.738281 -38.75 -4.179688 -39.8125 -1.546875 L -42.5 5.125 C -43.539062 7.695312 -45.054688 9.742188 -47.046875 11.265625 C -49.046875 12.785156 -51.398438 13.65625 -54.109375 13.875 C -56.828125 14.09375 -59.726562 13.578125 -62.8125 12.328125 C -65.851562 11.109375 -68.265625 9.503906 -70.046875 7.515625 C -71.828125 5.535156 -72.910156 3.304688 -73.296875 0.828125 C -73.691406 -1.648438 -73.359375 -4.210938 -72.296875 -6.859375 L -69.609375 -13.53125 C -68.578125 -16.101562 -67.054688 -18.148438 -65.046875 -19.671875 C -63.046875 -21.191406 -60.707031 -22.066406 -58.03125 -22.296875 C -55.363281 -22.523438 -52.507812 -22.03125 -49.46875 -20.8125 Z M -52.390625 -13.5625 C -54.253906 -14.3125 -55.898438 -14.351562 -57.328125 -13.6875 C -58.765625 -13.03125 -59.875 -11.738281 -60.65625 -9.8125 L -63.21875 -3.4375 C -64 -1.5 -64.109375 0.21875 -63.546875 1.71875 C -62.984375 3.21875 -61.769531 4.34375 -59.90625 5.09375 C -57.976562 5.875 -56.273438 5.921875 -54.796875 5.234375 C -53.328125 4.546875 -52.203125 3.234375 -51.421875 1.296875 L -48.859375 -5.078125 C -48.078125 -7.003906 -47.988281 -8.703125 -48.59375 -10.171875 C -49.195312 -11.648438 -50.460938 -12.78125 -52.390625 -13.5625 Z M -52.390625 -13.5625 "/></g></g></g><g fill="#303b31" fill-opacity="1"><g transform="translate(299.651628, 817.162066)"><g/></g></g><g fill="#303b31" fill-opacity="1"><g transform="translate(282.929385, 805.699297)"><g><path d="M -29.796875 -15.859375 L -23.171875 -22.640625 L -3.125 -3.0625 L -62.921875 58.140625 L -82.609375 38.921875 L -75.984375 32.125 L -63.984375 43.84375 L -44.90625 24.328125 L -56.234375 13.265625 L -49.609375 6.484375 L -38.28125 17.546875 L -17.4375 -3.78125 Z M -29.796875 -15.859375 "/></g></g></g><g fill="#303b31" fill-opacity="1"><g transform="translate(256.3571, 780.016328)"><g><path d="M -17.3125 -26.15625 L -40.625 1.28125 L -6.265625 -9.46875 L 0.171875 0.265625 L -45.125 11.515625 L -71.625 46.78125 L -78.1875 36.875 L -57.03125 12 L -88.140625 21.84375 L -94.578125 12.109375 L -52.390625 1.6875 L -23.875 -36.0625 Z M -17.3125 -26.15625 "/></g></g></g><g fill="#303b31" fill-opacity="1"><g transform="translate(232.014815, 742.449522)"><g><path d="M -76.09375 13.921875 L -71.6875 25.5 L -80.5625 28.875 L -93.171875 -4.25 L -84.296875 -7.625 L -79.875 3.96875 L -8.78125 -23.09375 L -5 -13.140625 Z M -76.09375 13.921875 "/></g></g></g><g fill="#303b31" fill-opacity="1"><g transform="translate(217.529504, 704.482148)"><g><path d="M -63.078125 -31.59375 C -59.429688 -32.113281 -56.234375 -31.707031 -53.484375 -30.375 C -50.734375 -29.050781 -48.59375 -26.992188 -47.0625 -24.203125 C -46.53125 -27.296875 -45.253906 -29.789062 -43.234375 -31.6875 C -41.222656 -33.59375 -38.570312 -34.785156 -35.28125 -35.265625 L -5.671875 -39.515625 L -4.140625 -28.78125 L -34.359375 -24.4375 C -36.773438 -24.09375 -38.578125 -23.1875 -39.765625 -21.71875 C -40.953125 -20.25 -41.390625 -18.414062 -41.078125 -16.21875 L -40.09375 -9.390625 L -2.125 -14.84375 L -0.625 -4.328125 L -85.3125 7.828125 L -87.671875 -8.578125 C -88.242188 -12.628906 -88.035156 -16.195312 -87.046875 -19.28125 C -86.054688 -22.375 -84.359375 -24.832031 -81.953125 -26.65625 C -79.546875 -28.488281 -76.59375 -29.65625 -73.09375 -30.15625 Z M -77.4375 -4.03125 L -49.484375 -8.046875 L -50.359375 -14.140625 C -50.722656 -16.617188 -51.726562 -18.492188 -53.375 -19.765625 C -55.03125 -21.035156 -57.226562 -21.472656 -59.96875 -21.078125 L -71.21875 -19.46875 C -73.90625 -19.082031 -75.847656 -18.03125 -77.046875 -16.3125 C -78.242188 -14.59375 -78.660156 -12.460938 -78.296875 -9.921875 Z M -77.4375 -4.03125 "/></g></g></g><g fill="#303b31" fill-opacity="1"><g transform="translate(211.305226, 660.484622)"><g><path d="M -20.5 -31.359375 L -21.8125 -16.828125 L 1.015625 -11.203125 L 0.078125 -0.828125 L -83.875 -23.796875 L -82.8125 -35.625 L 3.890625 -43.1875 L 2.953125 -32.796875 Z M -29.984375 -30.765625 L -66.171875 -28.46875 L -66.234375 -27.84375 L -31.03125 -19.140625 Z M -29.984375 -30.765625 "/></g></g></g><g fill="#303b31" fill-opacity="1"><g transform="translate(217.164331, 612.992286)"><g/></g></g><g fill="#303b31" fill-opacity="1"><g transform="translate(223.040294, 592.223584)"><g><path d="M -77.59375 -36.296875 L -73.5625 -46.25 L 5.6875 -14 L 1.65625 -4.046875 Z M -77.59375 -36.296875 "/></g></g></g><g fill="#303b31" fill-opacity="1"><g transform="translate(230.621008, 570.802226)"><g><path d="M -69.3125 -50.34375 L -64.140625 -58.28125 L -4.34375 -42.984375 L -4 -43.515625 L -53.515625 -74.609375 L -47.9375 -83.1875 L 23.765625 -36.515625 L 18.484375 -28.390625 L -41.03125 -43.75 L -41.375 -43.21875 L 7.96875 -12.234375 L 2.390625 -3.671875 Z M -69.3125 -50.34375 "/></g></g></g><g fill="#303b31" fill-opacity="1"><g transform="translate(257.759594, 529.965851)"><g><path d="M 16.421875 -14.15625 C 12.078125 -10.070312 7.582031 -8.0625 2.9375 -8.125 C -1.707031 -8.195312 -6.265625 -10.613281 -10.734375 -15.375 L -17.234375 -22.28125 L -9.25 -29.78125 L -2.609375 -22.71875 C -0.222656 -20.1875 2.015625 -18.816406 4.109375 -18.609375 C 6.210938 -18.398438 8.148438 -19.125 9.921875 -20.78125 C 11.535156 -22.300781 12.3125 -24.054688 12.25 -26.046875 C 12.195312 -28.035156 11.238281 -30.019531 9.375 -32 L 5.609375 -36.03125 C 3.796875 -37.957031 1.859375 -39.28125 -0.203125 -40 C -2.273438 -40.71875 -4.304688 -41.046875 -6.296875 -40.984375 C -8.285156 -40.929688 -10.796875 -40.632812 -13.828125 -40.09375 C -17.566406 -39.519531 -20.722656 -39.207031 -23.296875 -39.15625 C -25.878906 -39.113281 -28.675781 -39.703125 -31.6875 -40.921875 C -34.707031 -42.148438 -37.71875 -44.359375 -40.71875 -47.546875 L -44.5625 -51.65625 C -46.988281 -54.226562 -48.609375 -57.039062 -49.421875 -60.09375 C -50.242188 -63.144531 -50.164062 -66.175781 -49.1875 -69.1875 C -48.207031 -72.207031 -46.378906 -74.976562 -43.703125 -77.5 C -41.015625 -80.019531 -38.171875 -81.6875 -35.171875 -82.5 C -32.179688 -83.320312 -29.203125 -83.21875 -26.234375 -82.1875 C -23.273438 -81.164062 -20.460938 -79.238281 -17.796875 -76.40625 L -10.71875 -68.890625 L -18.59375 -61.46875 L -25.734375 -69.0625 C -27.785156 -71.238281 -29.84375 -72.429688 -31.90625 -72.640625 C -33.976562 -72.859375 -35.796875 -72.226562 -37.359375 -70.75 C -38.972656 -69.226562 -39.757812 -67.429688 -39.71875 -65.359375 C -39.6875 -63.285156 -38.769531 -61.289062 -36.96875 -59.375 L -33.25 -55.421875 C -31.445312 -53.503906 -29.53125 -52.207031 -27.5 -51.53125 C -25.476562 -50.851562 -23.5 -50.546875 -21.5625 -50.609375 C -19.625 -50.679688 -17.117188 -50.960938 -14.046875 -51.453125 C -10.335938 -52.078125 -7.15625 -52.394531 -4.5 -52.40625 C -1.851562 -52.425781 0.984375 -51.8125 4.015625 -50.5625 C 7.054688 -49.320312 10.078125 -47.109375 13.078125 -43.921875 L 17.21875 -39.515625 C 19.644531 -36.929688 21.25 -34.148438 22.03125 -31.171875 C 22.820312 -28.191406 22.753906 -25.242188 21.828125 -22.328125 C 20.910156 -19.410156 19.109375 -16.6875 16.421875 -14.15625 Z M 16.421875 -14.15625 "/></g></g></g><g fill="#303b31" fill-opacity="1"><g transform="translate(290.231733, 499.981693)"><g><path d="M -26.703125 -72.609375 L -37.359375 -66.296875 L -42.1875 -74.453125 L -11.703125 -92.515625 L -6.875 -84.359375 L -17.546875 -78.03125 L 21.25 -12.59375 L 12.09375 -7.171875 Z M -26.703125 -72.609375 "/></g></g></g><g fill="#303b31" fill-opacity="1"><g transform="translate(325.058082, 479.213035)"><g><path d="M 20.84375 -31.125 L 6.953125 -26.640625 L 10.703125 -3.453125 L 0.78125 -0.25 L -10.890625 -86.5 L 0.421875 -90.140625 L 41.265625 -13.296875 L 31.34375 -10.09375 Z M 16.59375 -39.609375 L 0.34375 -72.046875 L -0.25 -71.84375 L 5.484375 -36.03125 Z M 16.59375 -39.609375 "/></g></g></g><g fill="#303b31" fill-opacity="1"><g transform="translate(368.037123, 465.258417)"><g><path d="M -1.5 -85.65625 L 7.96875 -86.3125 L 31.71875 -29.328125 L 32.34375 -29.375 L 27.40625 -87.640625 L 37.59375 -88.34375 L 43.453125 -2.984375 L 33.796875 -2.3125 L 10.265625 -59.109375 L 9.640625 -59.0625 L 14.5625 -1 L 4.359375 -0.296875 Z M -1.5 -85.65625 "/></g></g></g><g fill="#303b31" fill-opacity="1"><g transform="translate(417.275458, 462.57226)"><g><path d="M 26.21875 -72.78125 L 14 -74.796875 L 15.546875 -84.15625 L 50.515625 -78.40625 L 48.96875 -69.046875 L 36.71875 -71.046875 L 24.375 4.015625 L 13.875 2.28125 Z M 26.21875 -72.78125 "/></g></g></g><g fill="#303b31" fill-opacity="1"><g transform="translate(459.414275, 470.803592)"><g/></g></g><g fill="#303b31" fill-opacity="1"><g transform="translate(478.234406, 476.274543)"><g><path d="M 63.015625 -31.703125 C 61.253906 -28.460938 59.019531 -26.132812 56.3125 -24.71875 C 53.613281 -23.300781 50.6875 -22.816406 47.53125 -23.265625 C 49.6875 -20.984375 50.925781 -18.46875 51.25 -15.71875 C 51.582031 -12.976562 50.953125 -10.144531 49.359375 -7.21875 L 35.078125 19.0625 L 25.546875 13.890625 L 40.125 -12.9375 C 41.289062 -15.070312 41.640625 -17.054688 41.171875 -18.890625 C 40.710938 -20.734375 39.507812 -22.1875 37.5625 -23.25 L 31.5 -26.546875 L 13.171875 7.15625 L 3.84375 2.09375 L 44.703125 -73.078125 L 59.265625 -65.171875 C 62.859375 -63.210938 65.597656 -60.910156 67.484375 -58.265625 C 69.367188 -55.617188 70.320312 -52.785156 70.34375 -49.765625 C 70.375 -46.753906 69.539062 -43.691406 67.84375 -40.578125 Z M 49.5 -59.6875 L 36.015625 -34.875 L 41.4375 -31.921875 C 43.625 -30.734375 45.722656 -30.421875 47.734375 -30.984375 C 49.753906 -31.554688 51.425781 -33.0625 52.75 -35.5 L 58.171875 -45.484375 C 59.472656 -47.867188 59.785156 -50.050781 59.109375 -52.03125 C 58.441406 -54.007812 56.984375 -55.613281 54.734375 -56.84375 Z M 49.5 -59.6875 "/></g></g></g><g fill="#303b31" fill-opacity="1"><g transform="translate(517.612168, 498.447578)"><g><path d="M 30.75 13.953125 L 24.5625 21.140625 L 3.3125 2.859375 L 59.109375 -62 L 79.96875 -44.0625 L 73.78125 -36.875 L 61.0625 -47.8125 L 43.265625 -27.125 L 55.28125 -16.796875 L 49.09375 -9.609375 L 37.078125 -19.9375 L 17.640625 2.671875 Z M 30.75 13.953125 "/></g></g></g><g fill="#303b31" fill-opacity="1"><g transform="translate(545.764075, 522.445536)"><g><path d="M 80.375 -35.609375 C 82.851562 -32.335938 84.347656 -29.046875 84.859375 -25.734375 C 85.367188 -22.429688 84.910156 -19.25 83.484375 -16.1875 C 82.054688 -13.132812 79.707031 -10.367188 76.4375 -7.890625 L 61.25 3.640625 C 57.988281 6.109375 54.691406 7.617188 51.359375 8.171875 C 48.023438 8.734375 44.820312 8.304688 41.75 6.890625 C 38.675781 5.484375 35.921875 3.175781 33.484375 -0.03125 L 30.40625 -4.109375 L 9.140625 12.03125 L 2.640625 3.484375 L 70.796875 -48.234375 Z M 70.125 -16.71875 C 72.675781 -18.65625 74.128906 -20.757812 74.484375 -23.03125 C 74.847656 -25.3125 74.210938 -27.53125 72.578125 -29.6875 L 69.5 -33.765625 L 38.28125 -10.078125 L 41.359375 -6 C 43.046875 -3.789062 45.007812 -2.554688 47.25 -2.296875 C 49.5 -2.046875 51.921875 -2.90625 54.515625 -4.875 Z M 70.125 -16.71875 "/></g></g></g><g fill="#303b31" fill-opacity="1"><g transform="translate(572.247413, 558.669399)"><g><path d="M 21.515625 23.125 L 12.953125 27.203125 L 1.875 3.953125 L 79.125 -32.828125 L 83.75 -23.140625 L 15.0625 9.5625 Z M 21.515625 23.125 "/></g></g></g><g fill="#303b31" fill-opacity="1"><g transform="translate(587.211941, 589.538678)"><g><path d="M 34.46875 7.515625 L 83 -20.734375 L 85.8125 -9.296875 L 48.625 9.1875 L 48.765625 9.796875 L 90.296875 8.90625 L 93.109375 20.34375 L 37.109375 17.8125 L 6.25 25.40625 L 3.703125 15.078125 Z M 34.46875 7.515625 "/></g></g></g><g fill="#303b31" fill-opacity="1"><g transform="translate(596.70725, 634.118886)"><g/></g></g><g fill="#303b31" fill-opacity="1"><g transform="translate(599.075339, 653.408532)"><g><path d="M -3.203125 22.609375 C -2.796875 18.671875 -1.582031 15.359375 0.4375 12.671875 C 2.46875 9.984375 5.1875 8.046875 8.59375 6.859375 C 12.007812 5.679688 15.894531 5.320312 20.25 5.78125 L 64.1875 10.390625 C 68.550781 10.835938 72.257812 11.988281 75.3125 13.84375 C 78.363281 15.707031 80.597656 18.164062 82.015625 21.21875 C 83.441406 24.269531 83.953125 27.765625 83.546875 31.703125 C 83.140625 35.566406 81.921875 38.84375 79.890625 41.53125 C 77.867188 44.21875 75.207031 46.15625 71.90625 47.34375 C 68.601562 48.53125 64.84375 48.898438 60.625 48.453125 L 52.234375 47.578125 L 53.375 36.703125 L 61.875 37.59375 C 65.394531 37.96875 68.179688 37.507812 70.234375 36.21875 C 72.296875 34.9375 73.453125 33.085938 73.703125 30.671875 C 73.972656 28.109375 73.25 26.003906 71.53125 24.359375 C 69.820312 22.710938 67.171875 21.703125 63.578125 21.328125 L 18.484375 16.609375 C 14.890625 16.234375 12.082031 16.671875 10.0625 17.921875 C 8.050781 19.171875 6.910156 21.078125 6.640625 23.640625 C 6.378906 26.128906 7.117188 28.21875 8.859375 29.90625 C 10.609375 31.59375 13.242188 32.617188 16.765625 32.984375 L 31.28125 34.5 L 32.265625 25.0625 L 41.703125 26.046875 L 39.59375 46.25 L 15.640625 43.75 C 11.492188 43.3125 7.925781 42.171875 4.9375 40.328125 C 1.945312 38.484375 -0.253906 36.035156 -1.671875 32.984375 C -3.097656 29.929688 -3.609375 26.472656 -3.203125 22.609375 Z M -3.203125 22.609375 "/></g></g></g><g fill="#303b31" fill-opacity="1"><g transform="translate(593.39833, 700.149172)"><g><path d="M -1.234375 33.75 L -10.234375 30.75 L -1.375 4.15625 L 79.8125 31.171875 L 71.125 57.28125 L 62.125 54.28125 L 67.421875 38.359375 L 41.515625 29.75 L 36.515625 44.78125 L 27.515625 41.78125 L 32.515625 26.75 L 4.234375 17.34375 Z M -1.234375 33.75 "/></g></g></g><g fill="#303b31" fill-opacity="1"><g transform="translate(581.572993, 735.508919)"><g><path d="M 58.796875 50.28125 L 65 39.5625 L 73.203125 44.3125 L 55.453125 74.984375 L 47.25 70.234375 L 53.46875 59.484375 L -12.375 21.375 L -7.046875 12.171875 Z M 58.796875 50.28125 "/></g></g></g><g fill="#303b31" fill-opacity="1"><g transform="translate(558.963464, 772.010879)"><g/></g></g><g fill="#303b31" fill-opacity="1"><g transform="translate(545.072463, 788.535057)"><g><path d="M 55.84375 64.96875 L 48.078125 72.375 L -10.9375 10.421875 L -3.171875 3.015625 Z M 55.84375 64.96875 "/></g></g></g><g fill="#303b31" fill-opacity="1"><g transform="translate(529.081738, 804.974567)"><g><path d="M 28.640625 83.4375 C 25.203125 85.675781 21.742188 86.890625 18.265625 87.078125 C 14.796875 87.265625 11.515625 86.453125 8.421875 84.640625 C 5.335938 82.835938 2.582031 80.070312 0.15625 76.34375 L -23.078125 40.609375 C -25.460938 36.941406 -26.847656 33.304688 -27.234375 29.703125 C -27.617188 26.097656 -27.035156 22.753906 -25.484375 19.671875 C -23.929688 16.597656 -21.4375 13.941406 -18 11.703125 L -3.671875 2.390625 L 42.96875 74.125 Z M 9.703125 71.125 C 11.640625 74.101562 13.804688 75.910156 16.203125 76.546875 C 18.609375 77.179688 20.976562 76.738281 23.3125 75.21875 L 28.734375 71.6875 L -7.234375 16.390625 L -12.65625 19.921875 C -14.988281 21.441406 -16.351562 23.425781 -16.75 25.875 C -17.144531 28.320312 -16.375 31.03125 -14.4375 34 Z M 9.703125 71.125 "/></g></g></g><g fill="#303b31" fill-opacity="1"><g transform="translate(487.391454, 830.157492)"><g/></g></g><g fill="#303b31" fill-opacity="1"><g transform="translate(467.063548, 838.368289)"><g/></g></g><g clip-path="url(#75bcde3858)"><g clip-path="url(#b5cadcaae4)"><path fill="#ffffff" d="M 360.734375 611.792969 L 444.601562 611.792969 L 444.601562 695.660156 L 360.734375 695.660156 Z M 360.734375 611.792969 " fill-opacity="1" fill-rule="nonzero"/></g></g><g clip-path="url(#d856afcbfb)"><path fill="#303b31" d="M 228.234375 1278.265625 L 581.695312 1278.265625 L 581.695312 1335.460938 L 228.234375 1335.460938 Z M 228.234375 1278.265625 " fill-opacity="1" fill-rule="nonzero"/></g><g clip-path="url(#fd494c677b)"><path fill="#303b31" d="M 432.359375 314.871094 C 422.992188 312.507812 413.191406 311.246094 403.089844 311.246094 C 394.351562 311.246094 385.839844 312.195312 377.636719 313.980469 L 405.445312 341.785156 Z M 432.359375 314.871094 " fill-opacity="1" fill-rule="nonzero"/></g><path stroke-linecap="butt" transform="matrix(0.749999, -0.00129621, 0.00129621, 0.749999, -28.95964, 39.103446)" fill="none" stroke-linejoin="miter" d="M 0.000890156 1.497493 L 1157.221518 1.497488 " stroke="#303b31" stroke-width="3" stroke-opacity="1" stroke-miterlimit="4"/><path stroke-linecap="butt" transform="matrix(0.749999, -0.00129621, 0.00129621, 0.749999, -28.95964, 1400.14637)" fill="none" stroke-linejoin="miter" d="M 0.000890054 1.497552 L 1157.221518 1.497547 " stroke="#303b31" stroke-width="3" stroke-opacity="1" stroke-miterlimit="4"/><g clip-path="url(#57cc25e7e8)"><path fill="#e0caa6" d="M 719.367188 321.132812 C 708.792969 308.984375 708.609375 281.390625 708.609375 281.390625 C 708.609375 281.390625 708.132812 308.984375 697.558594 321.132812 C 687.0625 333.183594 665.082031 333.460938 655.453125 333.609375 C 665.082031 333.726562 686.953125 333.890625 697.5 345.90625 C 708.128906 358.015625 708.429688 385.609375 708.429688 385.609375 C 708.429688 385.609375 708.785156 358.011719 719.3125 345.832031 C 729.753906 333.742188 749.578125 333.480469 759.203125 333.296875 C 749.578125 333.148438 729.863281 333.183594 719.367188 321.132812 Z M 719.367188 321.132812 " fill-opacity="1" fill-rule="nonzero"/></g><g clip-path="url(#4191158fb4)"><path fill="#e0caa6" d="M 93.011719 929.253906 C 82.457031 917.128906 82.273438 889.589844 82.273438 889.589844 C 82.273438 889.589844 81.796875 917.128906 71.242188 929.253906 C 60.769531 941.28125 38.832031 941.554688 29.226562 941.703125 C 38.832031 941.820312 60.664062 941.984375 71.1875 953.976562 C 81.792969 966.0625 82.09375 993.597656 82.09375 993.597656 C 82.09375 993.597656 82.449219 966.058594 92.953125 953.902344 C 103.375 941.835938 123.160156 941.574219 132.765625 941.394531 C 123.15625 941.242188 103.484375 941.28125 93.011719 929.253906 Z M 93.011719 929.253906 " fill-opacity="1" fill-rule="nonzero"/></g><g clip-path="url(#a1fd601ef4)"><g clip-path="url(#ee5d354f80)"><g clip-path="url(#d2104c4faf)"><path fill="#ffffff" d="M 55.285156 307.050781 C 60.308594 313.867188 49.160156 324.269531 46.457031 316.664062 C 44.71875 311.773438 50.800781 300.96875 55.285156 307.050781 Z M 55.285156 307.050781 " fill-opacity="1" fill-rule="nonzero"/></g></g></g><g clip-path="url(#20f1278b38)"><g clip-path="url(#9bcd6f29af)"><g clip-path="url(#44aa440351)"><path fill="#ffffff" d="M 84.664062 303.566406 C 77.542969 301.628906 82.089844 291 87.859375 292.550781 C 95.554688 294.625 91.726562 305.488281 84.664062 303.566406 Z M 84.664062 303.566406 " fill-opacity="1" fill-rule="nonzero"/></g></g></g><g clip-path="url(#b1871cb2d2)"><g clip-path="url(#3a22d5512f)"><g clip-path="url(#527e8dbd1c)"><path fill="#ffffff" d="M 146.101562 348.644531 C 138.1875 348.226562 142.21875 331.539062 148.539062 336.421875 C 152.332031 339.351562 151.175781 348.914062 146.101562 348.644531 Z M 146.101562 348.644531 " fill-opacity="1" fill-rule="nonzero"/></g></g></g><g clip-path="url(#60e83cc964)"><g clip-path="url(#d7b0eb2373)"><g clip-path="url(#aa2f011fa1)"><path fill="#ffffff" d="M 76.203125 391.378906 C 82.976562 395.03125 74.378906 403.921875 70.335938 401.003906 C 66.0625 397.917969 70.59375 388.355469 76.203125 391.378906 Z M 76.203125 391.378906 " fill-opacity="1" fill-rule="nonzero"/></g></g></g><g clip-path="url(#d2496aedb5)"><g clip-path="url(#cd66c9aa59)"><g clip-path="url(#dad2ea139e)"><path fill="#ffffff" d="M 121.371094 382.734375 C 123.742188 383.421875 125.183594 386.707031 124.246094 389.28125 C 123.210938 392.121094 119.949219 394.308594 117.78125 393.613281 C 112.402344 391.886719 115.828125 381.128906 121.371094 382.734375 Z M 121.371094 382.734375 " fill-opacity="1" fill-rule="nonzero"/></g></g></g><g clip-path="url(#ac9d661f60)"><g clip-path="url(#41c0c172df)"><g clip-path="url(#b6552bfe99)"><path fill="#ffffff" d="M 108.429688 325.703125 C 107.574219 327.703125 103.519531 329.804688 101.875 329.101562 C 99.941406 328.277344 98.019531 323.8125 98.761719 321.875 C 101.175781 315.558594 110.410156 321.070312 108.429688 325.703125 Z M 108.429688 325.703125 " fill-opacity="1" fill-rule="nonzero"/></g></g></g><g clip-path="url(#12a7e9dd0f)"><g clip-path="url(#64ef169772)"><g clip-path="url(#5d9508412e)"><path fill="#ffffff" d="M 135.71875 272.808594 C 142.503906 275.285156 137.652344 283.132812 133.1875 281.5625 C 128.605469 279.949219 130.03125 270.734375 135.71875 272.808594 Z M 135.71875 272.808594 " fill-opacity="1" fill-rule="nonzero"/></g></g></g><g clip-path="url(#ac3b33ab32)"><g clip-path="url(#614799bb51)"><g clip-path="url(#16d3001192)"><path fill="#ffffff" d="M 64.496094 357.492188 C 66.464844 352.308594 74.65625 357.148438 72.96875 361.71875 C 71.242188 366.402344 62.253906 363.417969 64.496094 357.492188 Z M 64.496094 357.492188 " fill-opacity="1" fill-rule="nonzero"/></g></g></g><g clip-path="url(#2a5f51f65b)"><g clip-path="url(#b8063db700)"><g clip-path="url(#541f206da5)"><path fill="#ffffff" d="M 31.382812 430.96875 C 31.535156 427.492188 31.441406 423.90625 34.933594 424.023438 C 36.804688 424.085938 38.398438 426.058594 38.378906 428.175781 C 38.324219 434.105469 31.160156 436.082031 31.382812 430.96875 Z M 31.382812 430.96875 " fill-opacity="1" fill-rule="nonzero"/></g></g></g><g clip-path="url(#6d20c6742f)"><g clip-path="url(#603ed37659)"><g clip-path="url(#c3bbb995c6)"><path fill="#ffffff" d="M 26.78125 379.730469 C 22.605469 378.65625 24.515625 369.875 29.511719 371.140625 C 34.84375 372.492188 31.453125 380.929688 26.78125 379.730469 Z M 26.78125 379.730469 " fill-opacity="1" fill-rule="nonzero"/></g></g></g><g clip-path="url(#777c8360cb)"><g clip-path="url(#c9eb1573b9)"><g clip-path="url(#332085c1b6)"><path fill="#ffffff" d="M 773.859375 868.480469 C 772.9375 869.898438 770.992188 870.789062 769.308594 871.910156 C 761.75 876.953125 758.78125 861.882812 769.402344 857.992188 C 774.832031 856.003906 779.632812 861.238281 773.859375 868.480469 Z M 773.859375 868.480469 " fill-opacity="1" fill-rule="nonzero"/></g></g></g><g clip-path="url(#392f3ded52)"><g clip-path="url(#9228bd1ab8)"><g clip-path="url(#0f65fa5391)"><path fill="#ffffff" d="M 707.222656 1006.621094 C 698.746094 1009.746094 699.699219 993.355469 709.824219 991.578125 C 717.148438 990.296875 716.214844 1003.308594 707.222656 1006.621094 Z M 707.222656 1006.621094 " fill-opacity="1" fill-rule="nonzero"/></g></g></g><g clip-path="url(#106c711dd2)"><g clip-path="url(#0252a4e588)"><g clip-path="url(#1e604c2b79)"><path fill="#ffffff" d="M 622.800781 994.582031 C 620.917969 997.316406 618.363281 998.84375 615.027344 998.953125 C 606.054688 999.253906 612.21875 984.363281 622.1875 986.066406 C 624.90625 986.527344 626.183594 988.773438 625.003906 991.292969 C 624.449219 992.476562 623.542969 993.492188 622.800781 994.582031 Z M 622.800781 994.582031 " fill-opacity="1" fill-rule="nonzero"/></g></g></g><g clip-path="url(#2589e6127b)"><g clip-path="url(#93e0a6268d)"><g clip-path="url(#503f65e46c)"><path fill="#ffffff" d="M 678.410156 980.609375 C 683.210938 984.550781 676.0625 993.894531 670.410156 988.679688 C 665.105469 983.785156 673.667969 976.714844 678.410156 980.609375 Z M 678.410156 980.609375 " fill-opacity="1" fill-rule="nonzero"/></g></g></g><g clip-path="url(#32b6fdd88e)"><g clip-path="url(#43246d3033)"><g clip-path="url(#1f9d2d5b4e)"><path fill="#ffffff" d="M 700.324219 896.464844 C 693.683594 903.382812 689.109375 898.902344 690.976562 893.984375 C 694.234375 885.417969 706.539062 889.992188 700.324219 896.464844 Z M 700.324219 896.464844 " fill-opacity="1" fill-rule="nonzero"/></g></g></g><g clip-path="url(#8acfac5787)"><g clip-path="url(#68f53ee56d)"><g clip-path="url(#c8fbaa1f2c)"><path fill="#ffffff" d="M 661.136719 962.832031 C 658.246094 965.144531 655.214844 966.941406 652.960938 963.816406 C 648.851562 958.113281 659.390625 952.667969 662.054688 957.300781 C 663.160156 959.222656 662.34375 960.988281 661.136719 962.832031 Z M 661.136719 962.832031 " fill-opacity="1" fill-rule="nonzero"/></g></g></g><g clip-path="url(#a843618e3d)"><g clip-path="url(#0615f31e18)"><g clip-path="url(#f512bcad95)"><path fill="#ffffff" d="M 716.773438 948.785156 C 718.621094 946.714844 722.566406 946.238281 724.339844 947.871094 C 728.421875 951.632812 720.792969 958.960938 716.871094 955.113281 C 715.148438 953.425781 715.105469 950.652344 716.773438 948.785156 Z M 716.773438 948.785156 " fill-opacity="1" fill-rule="nonzero"/></g></g></g><g clip-path="url(#8e7b1b6b12)"><g clip-path="url(#72dc2065e8)"><g clip-path="url(#17847e65f2)"><path fill="#ffffff" d="M 704.710938 925.550781 C 702.808594 927.640625 700.910156 930.066406 698.644531 928.097656 C 695.875 925.695312 699.289062 921.023438 702.417969 919.925781 C 706.421875 918.519531 707.980469 921.753906 705.816406 924.1875 C 705.429688 924.621094 705.03125 925.054688 704.640625 925.488281 C 704.664062 925.507812 704.6875 925.527344 704.710938 925.550781 Z M 704.710938 925.550781 " fill-opacity="1" fill-rule="nonzero"/></g></g></g><g clip-path="url(#c06bda59cc)"><g clip-path="url(#f8fa89160e)"><g clip-path="url(#6705e13149)"><path fill="#ffffff" d="M 758.101562 908.703125 C 753.304688 905.289062 760.566406 899.054688 763.625 901.164062 C 766.898438 903.421875 762.683594 911.96875 758.101562 908.703125 Z M 758.101562 908.703125 " fill-opacity="1" fill-rule="nonzero"/></g></g></g><g fill="#f5f1e9" fill-opacity="1"><g transform="translate(319.113067, 1323.811161)"><g><path d="M 20.90625 0.765625 C 18.789062 0.765625 16.773438 0.445312 14.859375 -0.1875 C 12.953125 -0.820312 11.203125 -1.71875 9.609375 -2.875 C 8.015625 -4.03125 6.628906 -5.394531 5.453125 -6.96875 C 4.285156 -8.539062 3.378906 -10.273438 2.734375 -12.171875 C 2.097656 -14.066406 1.78125 -16.0625 1.78125 -18.15625 C 1.78125 -20.269531 2.097656 -22.273438 2.734375 -24.171875 C 3.378906 -26.078125 4.289062 -27.816406 5.46875 -29.390625 C 6.65625 -30.960938 8.046875 -32.328125 9.640625 -33.484375 C 11.242188 -34.640625 13.003906 -35.53125 14.921875 -36.15625 C 16.847656 -36.789062 18.875 -37.109375 21 -37.109375 C 22.53125 -37.109375 24.066406 -36.925781 25.609375 -36.5625 C 27.160156 -36.195312 28.640625 -35.65625 30.046875 -34.9375 C 31.460938 -34.226562 32.753906 -33.351562 33.921875 -32.3125 C 35.097656 -31.28125 36.097656 -30.09375 36.921875 -28.75 C 37.753906 -27.40625 38.335938 -25.914062 38.671875 -24.28125 L 31.9375 -24.28125 C 30.988281 -26.394531 29.546875 -28.046875 27.609375 -29.234375 C 25.679688 -30.429688 23.425781 -31.03125 20.84375 -31.03125 C 19.132812 -31.03125 17.523438 -30.722656 16.015625 -30.109375 C 14.503906 -29.492188 13.179688 -28.617188 12.046875 -27.484375 C 10.910156 -26.347656 10.015625 -24.992188 9.359375 -23.421875 C 8.710938 -21.847656 8.390625 -20.09375 8.390625 -18.15625 C 8.390625 -16.175781 8.710938 -14.398438 9.359375 -12.828125 C 10.015625 -11.253906 10.910156 -9.910156 12.046875 -8.796875 C 13.179688 -7.679688 14.503906 -6.820312 16.015625 -6.21875 C 17.523438 -5.625 19.132812 -5.328125 20.84375 -5.328125 C 23.007812 -5.328125 24.882812 -5.695312 26.46875 -6.4375 C 28.050781 -7.175781 29.332031 -8.191406 30.3125 -9.484375 C 31.300781 -10.785156 31.96875 -12.28125 32.3125 -13.96875 L 20.578125 -13.96875 L 20.578125 -19.515625 L 39.5 -19.515625 C 39.519531 -16.546875 39.117188 -13.820312 38.296875 -11.34375 C 37.484375 -8.863281 36.273438 -6.71875 34.671875 -4.90625 C 33.078125 -3.09375 31.125 -1.691406 28.8125 -0.703125 C 26.5 0.273438 23.863281 0.765625 20.90625 0.765625 Z M 20.90625 0.765625 "/></g></g></g><g fill="#f5f1e9" fill-opacity="1"><g transform="translate(360.407878, 1323.811161)"><g><path d="M 29.40625 0 L 4.3125 0 L 4.3125 -36.25 L 29.15625 -36.25 L 29.15625 -30.3125 L 10.953125 -30.3125 L 10.953125 -21.21875 L 26.6875 -21.21875 L 26.6875 -15.625 L 10.953125 -15.625 L 10.953125 -5.9375 L 29.40625 -5.9375 Z M 29.40625 0 "/></g></g></g><g fill="#f5f1e9" fill-opacity="1"><g transform="translate(391.545601, 1323.811161)"><g><path d="M 18.546875 0 L 11.9375 0 L 11.9375 -30.328125 L 1.140625 -30.328125 L 1.140625 -36.25 L 29.34375 -36.25 L 29.34375 -30.328125 L 18.546875 -30.328125 Z M 18.546875 0 "/></g></g></g><g fill="#f5f1e9" fill-opacity="1"><g transform="translate(422.043508, 1323.811161)"><g/></g></g><g fill="#f5f1e9" fill-opacity="1"><g transform="translate(435.346359, 1323.811161)"><g><path d="M 10.421875 -10.921875 L 5.625 -10.921875 L 4.71875 -18.65625 L 4.71875 -36.25 L 11.359375 -36.25 L 11.359375 -18.640625 Z M 8.046875 0.640625 C 7.304688 0.640625 6.65625 0.476562 6.09375 0.15625 C 5.53125 -0.15625 5.09375 -0.582031 4.78125 -1.125 C 4.46875 -1.675781 4.3125 -2.269531 4.3125 -2.90625 C 4.3125 -3.5625 4.46875 -4.15625 4.78125 -4.6875 C 5.09375 -5.21875 5.53125 -5.648438 6.09375 -5.984375 C 6.65625 -6.316406 7.304688 -6.484375 8.046875 -6.484375 C 8.816406 -6.484375 9.484375 -6.316406 10.046875 -5.984375 C 10.617188 -5.648438 11.0625 -5.21875 11.375 -4.6875 C 11.695312 -4.15625 11.859375 -3.5625 11.859375 -2.90625 C 11.859375 -1.925781 11.507812 -1.085938 10.8125 -0.390625 C 10.125 0.296875 9.203125 0.640625 8.046875 0.640625 Z M 8.046875 0.640625 "/></g></g></g><g fill="#f5f1e9" fill-opacity="1"><g transform="translate(451.528384, 1323.811161)"><g><path d="M 18.359375 0 L 4.3125 0 L 4.3125 -36.25 L 18.28125 -36.25 C 21.175781 -36.25 23.804688 -35.816406 26.171875 -34.953125 C 28.535156 -34.097656 30.566406 -32.867188 32.265625 -31.265625 C 33.960938 -29.671875 35.269531 -27.765625 36.1875 -25.546875 C 37.101562 -23.335938 37.5625 -20.875 37.5625 -18.15625 C 37.5625 -15.4375 37.101562 -12.960938 36.1875 -10.734375 C 35.269531 -8.503906 33.96875 -6.585938 32.28125 -4.984375 C 30.59375 -3.378906 28.570312 -2.144531 26.21875 -1.28125 C 23.863281 -0.425781 21.242188 0 18.359375 0 Z M 10.84375 -30.359375 L 10.84375 -5.921875 L 18.15625 -5.921875 C 20.800781 -5.921875 23.070312 -6.410156 24.96875 -7.390625 C 26.875 -8.378906 28.332031 -9.78125 29.34375 -11.59375 C 30.363281 -13.40625 30.875 -15.554688 30.875 -18.046875 C 30.875 -20.515625 30.375 -22.671875 29.375 -24.515625 C 28.382812 -26.367188 26.9375 -27.804688 25.03125 -28.828125 C 23.125 -29.847656 20.8125 -30.359375 18.09375 -30.359375 Z M 10.84375 -30.359375 "/></g></g></g><g fill="#303b31" fill-opacity="1"><g transform="translate(127.121726, 204.130825)"><g><path d="M 41.875 -41.875 C 41.050781 -30.238281 38.25 -24.421875 33.46875 -24.421875 C 30.726562 -24.421875 28.570312 -26.75 27 -31.40625 C 25.425781 -36.0625 24.640625 -42.703125 24.640625 -51.328125 C 24.640625 -59.941406 25.425781 -66.578125 27 -71.234375 C 28.570312 -75.890625 30.726562 -78.21875 33.46875 -78.21875 C 37.84375 -78.21875 40.644531 -72.46875 41.875 -60.96875 L 62 -65.484375 C 60.488281 -77.804688 57.269531 -87.285156 52.34375 -93.921875 C 47.414062 -100.554688 41.125 -103.875 33.46875 -103.875 C 24.019531 -103.875 16.765625 -99.320312 11.703125 -90.21875 C 6.640625 -81.125 4.109375 -68.160156 4.109375 -51.328125 C 4.109375 -34.492188 6.640625 -21.523438 11.703125 -12.421875 C 16.765625 -3.316406 24.019531 1.234375 33.46875 1.234375 C 40.988281 1.234375 47.210938 -2.082031 52.140625 -8.71875 C 57.066406 -15.363281 60.351562 -24.84375 62 -37.15625 Z M 41.875 -41.875 "/></g></g></g><g fill="#303b31" fill-opacity="1"><g transform="translate(193.226949, 204.130825)"><g><path d="M 53.78125 -25.65625 L 53.78125 0 L 4.921875 0 L 4.921875 -102.640625 L 26.28125 -102.640625 L 26.28125 -25.65625 Z M 53.78125 -25.65625 "/></g></g></g><g fill="#303b31" fill-opacity="1"><g transform="translate(251.120339, 204.130825)"><g><path d="M 26.28125 -102.640625 L 26.28125 0 L 4.921875 0 L 4.921875 -102.640625 Z M 26.28125 -102.640625 "/></g></g></g><g fill="#303b31" fill-opacity="1"><g transform="translate(282.119989, 204.130825)"><g><path d="M 41.875 -41.875 C 41.050781 -30.238281 38.25 -24.421875 33.46875 -24.421875 C 30.726562 -24.421875 28.570312 -26.75 27 -31.40625 C 25.425781 -36.0625 24.640625 -42.703125 24.640625 -51.328125 C 24.640625 -59.941406 25.425781 -66.578125 27 -71.234375 C 28.570312 -75.890625 30.726562 -78.21875 33.46875 -78.21875 C 37.84375 -78.21875 40.644531 -72.46875 41.875 -60.96875 L 62 -65.484375 C 60.488281 -77.804688 57.269531 -87.285156 52.34375 -93.921875 C 47.414062 -100.554688 41.125 -103.875 33.46875 -103.875 C 24.019531 -103.875 16.765625 -99.320312 11.703125 -90.21875 C 6.640625 -81.125 4.109375 -68.160156 4.109375 -51.328125 C 4.109375 -34.492188 6.640625 -21.523438 11.703125 -12.421875 C 16.765625 -3.316406 24.019531 1.234375 33.46875 1.234375 C 40.988281 1.234375 47.210938 -2.082031 52.140625 -8.71875 C 57.066406 -15.363281 60.351562 -24.84375 62 -37.15625 Z M 41.875 -41.875 "/></g></g></g><g fill="#303b31" fill-opacity="1"><g transform="translate(348.225223, 204.130825)"><g><path d="M 40.640625 0 L 29.5625 -31.609375 L 26.28125 -23.609375 L 26.28125 0 L 4.921875 0 L 4.921875 -102.640625 L 26.28125 -102.640625 L 26.28125 -69.59375 L 41.0625 -102.640625 L 62.40625 -102.640625 L 42.296875 -58.921875 L 62.8125 0 Z M 40.640625 0 "/></g></g></g><g fill="#303b31" fill-opacity="1"><g transform="translate(412.072195, 204.130825)"><g/></g></g><g fill="#303b31" fill-opacity="1"><g transform="translate(433.217647, 204.130825)"><g><path d="M 61.796875 -102.640625 L 61.796875 0 L 40.640625 0 L 40.640625 -38.59375 L 26.28125 -38.59375 L 26.28125 0 L 4.921875 0 L 4.921875 -102.640625 L 26.28125 -102.640625 L 26.28125 -64.25 L 40.640625 -64.25 L 40.640625 -102.640625 Z M 61.796875 -102.640625 "/></g></g></g><g fill="#303b31" fill-opacity="1"><g transform="translate(499.938756, 204.130825)"><g><path d="M 26.28125 -78.625 L 26.28125 -63.234375 L 53.78125 -63.234375 L 53.78125 -39.625 L 26.28125 -39.625 L 26.28125 -24.21875 L 53.78125 -24.21875 L 53.78125 0 L 4.921875 0 L 4.921875 -102.640625 L 53.78125 -102.640625 L 53.78125 -78.625 Z M 26.28125 -78.625 "/></g></g></g><g fill="#303b31" fill-opacity="1"><g transform="translate(558.448044, 204.130825)"><g><path d="M 52.765625 -44.34375 C 58.503906 -38.457031 61.375 -29.359375 61.375 -17.046875 L 61.375 0 L 41.671875 0 L 41.671875 -19.09375 C 41.671875 -28.125 38.59375 -33.941406 32.4375 -36.546875 L 26.28125 -36.546875 L 26.28125 0 L 4.921875 0 L 4.921875 -102.640625 L 34.078125 -102.640625 C 42.972656 -102.640625 49.816406 -99.800781 54.609375 -94.125 C 59.398438 -88.445312 61.796875 -80.335938 61.796875 -69.796875 C 61.796875 -58.160156 58.785156 -49.675781 52.765625 -44.34375 Z M 34.484375 -60.15625 C 40.097656 -60.15625 42.90625 -63.164062 42.90625 -69.1875 C 42.90625 -75.476562 40.097656 -78.625 34.484375 -78.625 L 26.28125 -78.625 L 26.28125 -60.15625 Z M 34.484375 -60.15625 "/></g></g></g><g fill="#303b31" fill-opacity="1"><g transform="translate(624.347971, 204.130825)"><g><path d="M 26.28125 -78.625 L 26.28125 -63.234375 L 53.78125 -63.234375 L 53.78125 -39.625 L 26.28125 -39.625 L 26.28125 -24.21875 L 53.78125 -24.21875 L 53.78125 0 L 4.921875 0 L 4.921875 -102.640625 L 53.78125 -102.640625 L 53.78125 -78.625 Z M 26.28125 -78.625 "/></g></g></g><g fill="#303b31" fill-opacity="1"><g transform="translate(212.0475, 262.626022)"><g><path d="M 15.703125 0.515625 C 14.140625 0.515625 12.648438 0.28125 11.234375 -0.1875 C 9.816406 -0.65625 8.519531 -1.3125 7.34375 -2.15625 C 6.175781 -3.007812 5.160156 -4.015625 4.296875 -5.171875 C 3.441406 -6.335938 2.78125 -7.617188 2.3125 -9.015625 C 1.851562 -10.410156 1.625 -11.882812 1.625 -13.4375 C 1.625 -15 1.851562 -16.476562 2.3125 -17.875 C 2.78125 -19.28125 3.441406 -20.5625 4.296875 -21.71875 C 5.160156 -22.882812 6.175781 -23.890625 7.34375 -24.734375 C 8.519531 -25.585938 9.816406 -26.242188 11.234375 -26.703125 C 12.648438 -27.171875 14.140625 -27.40625 15.703125 -27.40625 C 17.117188 -27.40625 18.515625 -27.203125 19.890625 -26.796875 C 21.265625 -26.398438 22.53125 -25.816406 23.6875 -25.046875 C 24.851562 -24.273438 25.859375 -23.328125 26.703125 -22.203125 C 27.546875 -21.078125 28.144531 -19.796875 28.5 -18.359375 L 24.953125 -18.359375 C 24.453125 -19.585938 23.742188 -20.632812 22.828125 -21.5 C 21.910156 -22.375 20.84375 -23.039062 19.625 -23.5 C 18.40625 -23.96875 17.070312 -24.203125 15.625 -24.203125 C 14.164062 -24.203125 12.800781 -23.9375 11.53125 -23.40625 C 10.257812 -22.882812 9.140625 -22.140625 8.171875 -21.171875 C 7.203125 -20.203125 6.445312 -19.0625 5.90625 -17.75 C 5.375 -16.4375 5.109375 -15 5.109375 -13.4375 C 5.109375 -11.851562 5.375 -10.40625 5.90625 -9.09375 C 6.445312 -7.78125 7.203125 -6.644531 8.171875 -5.6875 C 9.140625 -4.738281 10.257812 -4.003906 11.53125 -3.484375 C 12.800781 -2.960938 14.164062 -2.703125 15.625 -2.703125 C 17.144531 -2.703125 18.488281 -2.914062 19.65625 -3.34375 C 20.832031 -3.769531 21.835938 -4.359375 22.671875 -5.109375 C 23.515625 -5.867188 24.191406 -6.75 24.703125 -7.75 C 25.210938 -8.75 25.554688 -9.820312 25.734375 -10.96875 L 15.5 -10.96875 L 15.5 -14.125 L 29.359375 -14.125 C 29.359375 -12.09375 29.0625 -10.191406 28.46875 -8.421875 C 27.875 -6.648438 26.988281 -5.09375 25.8125 -3.75 C 24.644531 -2.414062 23.210938 -1.367188 21.515625 -0.609375 C 19.816406 0.140625 17.878906 0.515625 15.703125 0.515625 Z M 15.703125 0.515625 "/></g></g></g><g fill="#303b31" fill-opacity="1"><g transform="translate(243.024743, 262.626022)"><g><path d="M 21.65625 0 L 3.65625 0 L 3.65625 -26.828125 L 21.484375 -26.828125 L 21.484375 -23.640625 L 7.140625 -23.640625 L 7.140625 -15.140625 L 19.609375 -15.140625 L 19.609375 -12.15625 L 7.140625 -12.15625 L 7.140625 -3.15625 L 21.65625 -3.15625 Z M 21.65625 0 "/></g></g></g><g fill="#303b31" fill-opacity="1"><g transform="translate(266.094999, 262.626022)"><g><path d="M 12.9375 0 L 9.453125 0 L 9.453125 -23.6875 L 0.96875 -23.6875 L 0.96875 -26.828125 L 21.4375 -26.828125 L 21.4375 -23.6875 L 12.9375 -23.6875 Z M 12.9375 0 "/></g></g></g><g fill="#303b31" fill-opacity="1"><g transform="translate(288.514557, 262.626022)"><g/></g></g><g fill="#303b31" fill-opacity="1"><g transform="translate(298.49195, 262.626022)"><g><path d="M 20.171875 0 L 3.65625 0 L 3.65625 -26.828125 L 7.140625 -26.828125 L 7.140625 -3.15625 L 20.171875 -3.15625 Z M 20.171875 0 "/></g></g></g><g fill="#303b31" fill-opacity="1"><g transform="translate(319.452363, 262.626022)"><g><path d="M 26.3125 0 L 22.59375 0 L 20.0625 -6.078125 L 6.515625 -6.078125 L 3.96875 0 L 0.25 0 L 11.609375 -26.828125 L 14.96875 -26.828125 Z M 13.15625 -21.90625 L 7.75 -9.03125 L 18.8125 -9.03125 L 13.40625 -21.90625 L 13.3125 -22.359375 L 13.265625 -22.359375 Z M 13.15625 -21.90625 "/></g></g></g><g fill="#303b31" fill-opacity="1"><g transform="translate(346.012737, 262.626022)"><g><path d="M 12.9375 0 L 9.453125 0 L 9.453125 -23.6875 L 0.96875 -23.6875 L 0.96875 -26.828125 L 21.4375 -26.828125 L 21.4375 -23.6875 L 12.9375 -23.6875 Z M 12.9375 0 "/></g></g></g><g fill="#303b31" fill-opacity="1"><g transform="translate(368.432294, 262.626022)"><g><path d="M 21.65625 0 L 3.65625 0 L 3.65625 -26.828125 L 21.484375 -26.828125 L 21.484375 -23.640625 L 7.140625 -23.640625 L 7.140625 -15.140625 L 19.609375 -15.140625 L 19.609375 -12.15625 L 7.140625 -12.15625 L 7.140625 -3.15625 L 21.65625 -3.15625 Z M 21.65625 0 "/></g></g></g><g fill="#303b31" fill-opacity="1"><g transform="translate(391.502551, 262.626022)"><g><path d="M 12.015625 0.578125 C 10.191406 0.578125 8.617188 0.335938 7.296875 -0.140625 C 5.972656 -0.628906 4.878906 -1.273438 4.015625 -2.078125 C 3.148438 -2.878906 2.507812 -3.773438 2.09375 -4.765625 C 1.6875 -5.753906 1.484375 -6.753906 1.484375 -7.765625 L 4.96875 -7.765625 C 4.96875 -6.835938 5.242188 -5.960938 5.796875 -5.140625 C 6.359375 -4.328125 7.160156 -3.671875 8.203125 -3.171875 C 9.253906 -2.671875 10.515625 -2.421875 11.984375 -2.421875 C 14.273438 -2.421875 16.03125 -2.835938 17.25 -3.671875 C 18.476562 -4.515625 19.09375 -5.765625 19.09375 -7.421875 C 19.09375 -8.472656 18.785156 -9.316406 18.171875 -9.953125 C 17.554688 -10.597656 16.722656 -11.101562 15.671875 -11.46875 C 14.617188 -11.832031 13.425781 -12.113281 12.09375 -12.3125 C 11.195312 -12.457031 10.28125 -12.644531 9.34375 -12.875 C 8.414062 -13.101562 7.523438 -13.398438 6.671875 -13.765625 C 5.816406 -14.128906 5.050781 -14.582031 4.375 -15.125 C 3.695312 -15.675781 3.160156 -16.347656 2.765625 -17.140625 C 2.367188 -17.941406 2.171875 -18.878906 2.171875 -19.953125 C 2.171875 -20.953125 2.347656 -21.898438 2.703125 -22.796875 C 3.066406 -23.703125 3.632812 -24.5 4.40625 -25.1875 C 5.1875 -25.882812 6.191406 -26.425781 7.421875 -26.8125 C 8.648438 -27.207031 10.140625 -27.40625 11.890625 -27.40625 C 13.992188 -27.40625 15.757812 -27.082031 17.1875 -26.4375 C 18.625 -25.789062 19.710938 -24.894531 20.453125 -23.75 C 21.191406 -22.601562 21.5625 -21.28125 21.5625 -19.78125 L 18.046875 -19.78125 C 18.046875 -20.675781 17.804688 -21.460938 17.328125 -22.140625 C 16.859375 -22.828125 16.160156 -23.363281 15.234375 -23.75 C 14.316406 -24.144531 13.191406 -24.34375 11.859375 -24.34375 C 10.640625 -24.34375 9.628906 -24.21875 8.828125 -23.96875 C 8.023438 -23.71875 7.394531 -23.382812 6.9375 -22.96875 C 6.476562 -22.550781 6.148438 -22.078125 5.953125 -21.546875 C 5.753906 -21.023438 5.65625 -20.488281 5.65625 -19.9375 C 5.65625 -19 5.945312 -18.222656 6.53125 -17.609375 C 7.125 -17.003906 7.976562 -16.515625 9.09375 -16.140625 C 10.207031 -15.773438 11.566406 -15.484375 13.171875 -15.265625 C 14.066406 -15.117188 14.960938 -14.925781 15.859375 -14.6875 C 16.765625 -14.457031 17.617188 -14.15625 18.421875 -13.78125 C 19.234375 -13.40625 19.953125 -12.929688 20.578125 -12.359375 C 21.210938 -11.785156 21.710938 -11.09375 22.078125 -10.28125 C 22.441406 -9.476562 22.625 -8.523438 22.625 -7.421875 C 22.625 -5.742188 22.195312 -4.304688 21.34375 -3.109375 C 20.488281 -1.921875 19.265625 -1.007812 17.671875 -0.375 C 16.085938 0.257812 14.203125 0.578125 12.015625 0.578125 Z M 12.015625 0.578125 "/></g></g></g><g fill="#303b31" fill-opacity="1"><g transform="translate(415.499562, 262.626022)"><g><path d="M 12.9375 0 L 9.453125 0 L 9.453125 -23.6875 L 0.96875 -23.6875 L 0.96875 -26.828125 L 21.4375 -26.828125 L 21.4375 -23.6875 L 12.9375 -23.6875 Z M 12.9375 0 "/></g></g></g><g fill="#303b31" fill-opacity="1"><g transform="translate(437.919108, 262.626022)"><g/></g></g><g fill="#303b31" fill-opacity="1"><g transform="translate(447.896501, 262.626022)"><g><path d="M 15.921875 0.53125 C 14.335938 0.53125 12.828125 0.296875 11.390625 -0.171875 C 9.960938 -0.640625 8.65625 -1.300781 7.46875 -2.15625 C 6.28125 -3.007812 5.242188 -4.015625 4.359375 -5.171875 C 3.472656 -6.335938 2.789062 -7.617188 2.3125 -9.015625 C 1.832031 -10.410156 1.59375 -11.882812 1.59375 -13.4375 C 1.59375 -15 1.832031 -16.476562 2.3125 -17.875 C 2.789062 -19.28125 3.472656 -20.5625 4.359375 -21.71875 C 5.242188 -22.882812 6.28125 -23.890625 7.46875 -24.734375 C 8.65625 -25.585938 9.960938 -26.242188 11.390625 -26.703125 C 12.828125 -27.171875 14.335938 -27.40625 15.921875 -27.40625 C 17.503906 -27.40625 19.007812 -27.171875 20.4375 -26.703125 C 21.875 -26.242188 23.191406 -25.585938 24.390625 -24.734375 C 25.585938 -23.890625 26.625 -22.882812 27.5 -21.71875 C 28.382812 -20.5625 29.066406 -19.28125 29.546875 -17.875 C 30.023438 -16.476562 30.265625 -15 30.265625 -13.4375 C 30.265625 -11.882812 30.023438 -10.410156 29.546875 -9.015625 C 29.066406 -7.617188 28.382812 -6.335938 27.5 -5.171875 C 26.625 -4.015625 25.585938 -3.007812 24.390625 -2.15625 C 23.191406 -1.300781 21.875 -0.640625 20.4375 -0.171875 C 19.007812 0.296875 17.503906 0.53125 15.921875 0.53125 Z M 15.921875 -2.703125 C 17.410156 -2.703125 18.8125 -2.96875 20.125 -3.5 C 21.445312 -4.039062 22.609375 -4.796875 23.609375 -5.765625 C 24.609375 -6.742188 25.382812 -7.882812 25.9375 -9.1875 C 26.5 -10.488281 26.78125 -11.90625 26.78125 -13.4375 C 26.78125 -14.957031 26.5 -16.367188 25.9375 -17.671875 C 25.382812 -18.984375 24.609375 -20.125 23.609375 -21.09375 C 22.609375 -22.070312 21.445312 -22.832031 20.125 -23.375 C 18.8125 -23.925781 17.410156 -24.203125 15.921875 -24.203125 C 14.421875 -24.203125 13.015625 -23.925781 11.703125 -23.375 C 10.398438 -22.832031 9.25 -22.070312 8.25 -21.09375 C 7.257812 -20.125 6.484375 -18.984375 5.921875 -17.671875 C 5.367188 -16.367188 5.09375 -14.957031 5.09375 -13.4375 C 5.09375 -11.90625 5.367188 -10.488281 5.921875 -9.1875 C 6.484375 -7.882812 7.257812 -6.742188 8.25 -5.765625 C 9.25 -4.796875 10.398438 -4.039062 11.703125 -3.5 C 13.015625 -2.96875 14.421875 -2.703125 15.921875 -2.703125 Z M 15.921875 -2.703125 "/></g></g></g><g fill="#303b31" fill-opacity="1"><g transform="translate(479.761061, 262.626022)"><g><path d="M 7.140625 0 L 3.65625 0 L 3.65625 -26.828125 L 21.484375 -26.828125 L 21.484375 -23.640625 L 7.140625 -23.640625 L 7.140625 -14.21875 L 19.609375 -14.21875 L 19.609375 -11.234375 L 7.140625 -11.234375 Z M 7.140625 0 "/></g></g></g><g fill="#303b31" fill-opacity="1"><g transform="translate(502.436955, 262.626022)"><g><path d="M 7.140625 0 L 3.65625 0 L 3.65625 -26.828125 L 21.484375 -26.828125 L 21.484375 -23.640625 L 7.140625 -23.640625 L 7.140625 -14.21875 L 19.609375 -14.21875 L 19.609375 -11.234375 L 7.140625 -11.234375 Z M 7.140625 0 "/></g></g></g><g fill="#303b31" fill-opacity="1"><g transform="translate(525.112849, 262.626022)"><g><path d="M 21.65625 0 L 3.65625 0 L 3.65625 -26.828125 L 21.484375 -26.828125 L 21.484375 -23.640625 L 7.140625 -23.640625 L 7.140625 -15.140625 L 19.609375 -15.140625 L 19.609375 -12.15625 L 7.140625 -12.15625 L 7.140625 -3.15625 L 21.65625 -3.15625 Z M 21.65625 0 "/></g></g></g><g fill="#303b31" fill-opacity="1"><g transform="translate(548.183106, 262.626022)"><g><path d="M 7.140625 0 L 3.65625 0 L 3.65625 -26.828125 L 15.046875 -26.828125 C 16.347656 -26.828125 17.539062 -26.625 18.625 -26.21875 C 19.707031 -25.820312 20.644531 -25.25 21.4375 -24.5 C 22.238281 -23.757812 22.851562 -22.875 23.28125 -21.84375 C 23.71875 -20.8125 23.9375 -19.664062 23.9375 -18.40625 C 23.9375 -17.082031 23.691406 -15.890625 23.203125 -14.828125 C 22.722656 -13.773438 22.039062 -12.882812 21.15625 -12.15625 C 20.28125 -11.4375 19.25 -10.921875 18.0625 -10.609375 L 24.53125 0 L 20.515625 0 L 14.5625 -10.09375 C 14.414062 -10.082031 14.269531 -10.078125 14.125 -10.078125 C 13.976562 -10.078125 13.832031 -10.078125 13.6875 -10.078125 L 7.140625 -10.078125 Z M 7.140625 -23.6875 L 7.140625 -13.0625 L 14.96875 -13.0625 C 16.019531 -13.070312 16.957031 -13.296875 17.78125 -13.734375 C 18.601562 -14.171875 19.253906 -14.789062 19.734375 -15.59375 C 20.210938 -16.394531 20.453125 -17.320312 20.453125 -18.375 C 20.453125 -19.40625 20.207031 -20.316406 19.71875 -21.109375 C 19.238281 -21.910156 18.578125 -22.539062 17.734375 -23 C 16.898438 -23.457031 15.957031 -23.6875 14.90625 -23.6875 Z M 7.140625 -23.6875 "/></g></g></g><g fill="#303b31" fill-opacity="1"><g transform="translate(573.935034, 262.626022)"><g><path d="M 12.015625 0.578125 C 10.191406 0.578125 8.617188 0.335938 7.296875 -0.140625 C 5.972656 -0.628906 4.878906 -1.273438 4.015625 -2.078125 C 3.148438 -2.878906 2.507812 -3.773438 2.09375 -4.765625 C 1.6875 -5.753906 1.484375 -6.753906 1.484375 -7.765625 L 4.96875 -7.765625 C 4.96875 -6.835938 5.242188 -5.960938 5.796875 -5.140625 C 6.359375 -4.328125 7.160156 -3.671875 8.203125 -3.171875 C 9.253906 -2.671875 10.515625 -2.421875 11.984375 -2.421875 C 14.273438 -2.421875 16.03125 -2.835938 17.25 -3.671875 C 18.476562 -4.515625 19.09375 -5.765625 19.09375 -7.421875 C 19.09375 -8.472656 18.785156 -9.316406 18.171875 -9.953125 C 17.554688 -10.597656 16.722656 -11.101562 15.671875 -11.46875 C 14.617188 -11.832031 13.425781 -12.113281 12.09375 -12.3125 C 11.195312 -12.457031 10.28125 -12.644531 9.34375 -12.875 C 8.414062 -13.101562 7.523438 -13.398438 6.671875 -13.765625 C 5.816406 -14.128906 5.050781 -14.582031 4.375 -15.125 C 3.695312 -15.675781 3.160156 -16.347656 2.765625 -17.140625 C 2.367188 -17.941406 2.171875 -18.878906 2.171875 -19.953125 C 2.171875 -20.953125 2.347656 -21.898438 2.703125 -22.796875 C 3.066406 -23.703125 3.632812 -24.5 4.40625 -25.1875 C 5.1875 -25.882812 6.191406 -26.425781 7.421875 -26.8125 C 8.648438 -27.207031 10.140625 -27.40625 11.890625 -27.40625 C 13.992188 -27.40625 15.757812 -27.082031 17.1875 -26.4375 C 18.625 -25.789062 19.710938 -24.894531 20.453125 -23.75 C 21.191406 -22.601562 21.5625 -21.28125 21.5625 -19.78125 L 18.046875 -19.78125 C 18.046875 -20.675781 17.804688 -21.460938 17.328125 -22.140625 C 16.859375 -22.828125 16.160156 -23.363281 15.234375 -23.75 C 14.316406 -24.144531 13.191406 -24.34375 11.859375 -24.34375 C 10.640625 -24.34375 9.628906 -24.21875 8.828125 -23.96875 C 8.023438 -23.71875 7.394531 -23.382812 6.9375 -22.96875 C 6.476562 -22.550781 6.148438 -22.078125 5.953125 -21.546875 C 5.753906 -21.023438 5.65625 -20.488281 5.65625 -19.9375 C 5.65625 -19 5.945312 -18.222656 6.53125 -17.609375 C 7.125 -17.003906 7.976562 -16.515625 9.09375 -16.140625 C 10.207031 -15.773438 11.566406 -15.484375 13.171875 -15.265625 C 14.066406 -15.117188 14.960938 -14.925781 15.859375 -14.6875 C 16.765625 -14.457031 17.617188 -14.15625 18.421875 -13.78125 C 19.234375 -13.40625 19.953125 -12.929688 20.578125 -12.359375 C 21.210938 -11.785156 21.710938 -11.09375 22.078125 -10.28125 C 22.441406 -9.476562 22.625 -8.523438 22.625 -7.421875 C 22.625 -5.742188 22.195312 -4.304688 21.34375 -3.109375 C 20.488281 -1.921875 19.265625 -1.007812 17.671875 -0.375 C 16.085938 0.257812 14.203125 0.578125 12.015625 0.578125 Z M 12.015625 0.578125 "/></g></g></g><path fill="#e0caa6" d="M 73.71875 1238.527344 L 73.71875 1135.472656 L 142.414062 1135.472656 L 142.414062 1033.472656 L 672.300781 1033.472656 L 672.300781 1135.472656 L 740.996094 1135.472656 L 740.996094 1238.527344 L 73.71875 1238.527344 " fill-opacity="1" fill-rule="nonzero"/><g fill="#303b31" fill-opacity="1"><g transform="translate(174.96851, 1105.999444)"><g><path d="M 20.9375 0 L 11.046875 0 L 11.046875 -44.734375 L 1.34375 -40.96875 L 1.3125 -49.671875 L 12.71875 -54.078125 L 20.9375 -54.078125 Z M 20.9375 0 "/></g></g></g><g fill="#303b31" fill-opacity="1"><g transform="translate(202.345156, 1105.999444)"><g><path d="M 25.828125 1.234375 C 21.910156 1.234375 18.5 0.492188 15.59375 -0.984375 C 12.695312 -2.472656 10.285156 -4.507812 8.359375 -7.09375 C 6.441406 -9.675781 5.003906 -12.65625 4.046875 -16.03125 C 3.097656 -19.40625 2.625 -22.988281 2.625 -26.78125 C 2.625 -30.726562 3.125 -34.421875 4.125 -37.859375 C 5.132812 -41.304688 6.625 -44.332031 8.59375 -46.9375 C 10.570312 -49.550781 12.988281 -51.59375 15.84375 -53.0625 C 18.707031 -54.53125 22.007812 -55.265625 25.75 -55.265625 C 29.0625 -55.265625 31.992188 -54.757812 34.546875 -53.75 C 37.109375 -52.75 39.300781 -51.347656 41.125 -49.546875 C 42.945312 -47.742188 44.4375 -45.644531 45.59375 -43.25 C 46.75 -40.851562 47.601562 -38.269531 48.15625 -35.5 C 48.707031 -32.726562 48.984375 -29.890625 48.984375 -26.984375 C 48.984375 -23.140625 48.5 -19.515625 47.53125 -16.109375 C 46.570312 -12.703125 45.125 -9.703125 43.1875 -7.109375 C 41.257812 -4.515625 38.847656 -2.472656 35.953125 -0.984375 C 33.066406 0.492188 29.691406 1.234375 25.828125 1.234375 Z M 25.828125 -7.875 C 28.578125 -7.875 30.945312 -8.6875 32.9375 -10.3125 C 34.925781 -11.9375 36.445312 -14.1875 37.5 -17.0625 C 38.5625 -19.9375 39.09375 -23.242188 39.09375 -26.984375 C 39.09375 -29.734375 38.800781 -32.273438 38.21875 -34.609375 C 37.632812 -36.941406 36.78125 -38.972656 35.65625 -40.703125 C 34.53125 -42.441406 33.140625 -43.785156 31.484375 -44.734375 C 29.828125 -45.691406 27.914062 -46.171875 25.75 -46.171875 C 23.070312 -46.171875 20.738281 -45.351562 18.75 -43.71875 C 16.769531 -42.09375 15.234375 -39.828125 14.140625 -36.921875 C 13.054688 -34.023438 12.515625 -30.671875 12.515625 -26.859375 C 12.515625 -23.148438 13.039062 -19.863281 14.09375 -17 C 15.15625 -14.144531 16.6875 -11.910156 18.6875 -10.296875 C 20.6875 -8.679688 23.066406 -7.875 25.828125 -7.875 Z M 25.828125 -7.875 "/></g></g></g><g fill="#303b31" fill-opacity="1"><g transform="translate(253.95947, 1105.999444)"><g><path d="M 17.796875 -28.25 C 15.785156 -28.25 13.910156 -28.585938 12.171875 -29.265625 C 10.441406 -29.941406 8.929688 -30.878906 7.640625 -32.078125 C 6.359375 -33.285156 5.351562 -34.695312 4.625 -36.3125 C 3.894531 -37.925781 3.53125 -39.675781 3.53125 -41.5625 C 3.53125 -43.46875 3.894531 -45.226562 4.625 -46.84375 C 5.351562 -48.457031 6.359375 -49.875 7.640625 -51.09375 C 8.929688 -52.3125 10.441406 -53.257812 12.171875 -53.9375 C 13.910156 -54.613281 15.785156 -54.953125 17.796875 -54.953125 C 19.835938 -54.953125 21.722656 -54.613281 23.453125 -53.9375 C 25.191406 -53.257812 26.703125 -52.316406 27.984375 -51.109375 C 29.273438 -49.910156 30.285156 -48.492188 31.015625 -46.859375 C 31.742188 -45.234375 32.109375 -43.46875 32.109375 -41.5625 C 32.109375 -39.675781 31.742188 -37.925781 31.015625 -36.3125 C 30.285156 -34.695312 29.269531 -33.285156 27.96875 -32.078125 C 26.675781 -30.878906 25.160156 -29.941406 23.421875 -29.265625 C 21.691406 -28.585938 19.816406 -28.25 17.796875 -28.25 Z M 23.640625 0.046875 L 14.828125 0.046875 L 47.875 -54 L 56.8125 -54 Z M 17.84375 -34.921875 C 19.0625 -34.921875 20.132812 -35.207031 21.0625 -35.78125 C 21.988281 -36.351562 22.710938 -37.132812 23.234375 -38.125 C 23.765625 -39.113281 24.03125 -40.234375 24.03125 -41.484375 C 24.03125 -42.804688 23.765625 -43.984375 23.234375 -45.015625 C 22.710938 -46.046875 21.988281 -46.859375 21.0625 -47.453125 C 20.132812 -48.054688 19.046875 -48.359375 17.796875 -48.359375 C 16.578125 -48.359375 15.503906 -48.066406 14.578125 -47.484375 C 13.648438 -46.898438 12.921875 -46.097656 12.390625 -45.078125 C 11.867188 -44.054688 11.609375 -42.882812 11.609375 -41.5625 C 11.609375 -40.3125 11.867188 -39.179688 12.390625 -38.171875 C 12.921875 -37.171875 13.65625 -36.378906 14.59375 -35.796875 C 15.539062 -35.210938 16.625 -34.921875 17.84375 -34.921875 Z M 52.296875 0.828125 C 50.273438 0.828125 48.40625 0.492188 46.6875 -0.171875 C 44.96875 -0.847656 43.457031 -1.789062 42.15625 -3 C 40.851562 -4.207031 39.84375 -5.609375 39.125 -7.203125 C 38.414062 -8.804688 38.0625 -10.550781 38.0625 -12.4375 C 38.0625 -14.34375 38.425781 -16.109375 39.15625 -17.734375 C 39.882812 -19.367188 40.890625 -20.796875 42.171875 -22.015625 C 43.460938 -23.234375 44.972656 -24.175781 46.703125 -24.84375 C 48.441406 -25.519531 50.316406 -25.859375 52.328125 -25.859375 C 54.335938 -25.859375 56.207031 -25.519531 57.9375 -24.84375 C 59.675781 -24.175781 61.1875 -23.238281 62.46875 -22.03125 C 63.757812 -20.820312 64.769531 -19.40625 65.5 -17.78125 C 66.226562 -16.15625 66.59375 -14.382812 66.59375 -12.46875 C 66.59375 -10.59375 66.226562 -8.847656 65.5 -7.234375 C 64.769531 -5.617188 63.757812 -4.207031 62.46875 -3 C 61.1875 -1.789062 59.675781 -0.847656 57.9375 -0.171875 C 56.207031 0.492188 54.328125 0.828125 52.296875 0.828125 Z M 52.375 -5.796875 C 53.59375 -5.796875 54.664062 -6.082031 55.59375 -6.65625 C 56.519531 -7.226562 57.242188 -8.015625 57.765625 -9.015625 C 58.296875 -10.023438 58.5625 -11.148438 58.5625 -12.390625 C 58.5625 -13.722656 58.289062 -14.894531 57.75 -15.90625 C 57.207031 -16.925781 56.472656 -17.734375 55.546875 -18.328125 C 54.617188 -18.929688 53.546875 -19.234375 52.328125 -19.234375 C 51.109375 -19.234375 50.035156 -18.941406 49.109375 -18.359375 C 48.179688 -17.773438 47.453125 -16.972656 46.921875 -15.953125 C 46.390625 -14.929688 46.125 -13.769531 46.125 -12.46875 C 46.125 -11.226562 46.390625 -10.097656 46.921875 -9.078125 C 47.453125 -8.054688 48.1875 -7.253906 49.125 -6.671875 C 50.070312 -6.085938 51.15625 -5.796875 52.375 -5.796875 Z M 52.375 -5.796875 "/></g></g></g><g fill="#303b31" fill-opacity="1"><g transform="translate(344.870595, 1105.999444)"><g><path d="M 43.828125 0 L 6.4375 0 L 6.4375 -54.03125 L 43.46875 -54.03125 L 43.46875 -45.171875 L 16.328125 -45.171875 L 16.328125 -31.625 L 39.78125 -31.625 L 39.78125 -23.28125 L 16.328125 -23.28125 L 16.328125 -8.859375 L 43.828125 -8.859375 Z M 43.828125 0 "/></g></g></g><g fill="#303b31" fill-opacity="1"><g transform="translate(391.27977, 1105.999444)"><g><path d="M 12.46875 0 L 0.796875 0 L 21.015625 -28.25 L 2.46875 -54.03125 L 14.140625 -54.03125 L 27.171875 -35.171875 L 40.25 -54.03125 L 51.890625 -54.03125 L 33.375 -28.25 L 53.59375 0 L 41.921875 0 L 27.171875 -21.375 Z M 12.46875 0 "/></g></g></g><g fill="#303b31" fill-opacity="1"><g transform="translate(445.675456, 1105.999444)"><g><path d="M 27.65625 0 L 17.796875 0 L 17.796875 -45.21875 L 1.703125 -45.21875 L 1.703125 -54.03125 L 43.75 -54.03125 L 43.75 -45.21875 L 27.65625 -45.21875 Z M 27.65625 0 "/></g></g></g><g fill="#303b31" fill-opacity="1"><g transform="translate(491.131019, 1105.999444)"><g><path d="M 16.328125 0 L 6.4375 0 L 6.4375 -54.03125 L 29.765625 -54.03125 C 32.492188 -54.03125 35.003906 -53.613281 37.296875 -52.78125 C 39.585938 -51.945312 41.566406 -50.75 43.234375 -49.1875 C 44.898438 -47.625 46.195312 -45.765625 47.125 -43.609375 C 48.050781 -41.453125 48.515625 -39.0625 48.515625 -36.4375 C 48.515625 -33.894531 48.054688 -31.578125 47.140625 -29.484375 C 46.234375 -27.390625 44.957031 -25.59375 43.3125 -24.09375 C 41.664062 -22.601562 39.734375 -21.472656 37.515625 -20.703125 L 49.75 0 L 38.390625 0 L 27.6875 -19.1875 C 27.34375 -19.164062 27 -19.15625 26.65625 -19.15625 C 26.3125 -19.15625 25.957031 -19.15625 25.59375 -19.15625 L 16.328125 -19.15625 Z M 16.328125 -45.21875 L 16.328125 -27.5 L 29.40625 -27.5 C 31.15625 -27.519531 32.722656 -27.90625 34.109375 -28.65625 C 35.503906 -29.414062 36.601562 -30.460938 37.40625 -31.796875 C 38.21875 -33.140625 38.625 -34.6875 38.625 -36.4375 C 38.625 -38.082031 38.210938 -39.566406 37.390625 -40.890625 C 36.566406 -42.210938 35.457031 -43.265625 34.0625 -44.046875 C 32.675781 -44.828125 31.109375 -45.21875 29.359375 -45.21875 Z M 16.328125 -45.21875 "/></g></g></g><g fill="#303b31" fill-opacity="1"><g transform="translate(542.586398, 1105.999444)"><g><path d="M 54.71875 0 L 44.265625 0 L 39.96875 -10.453125 L 15.09375 -10.453125 L 10.8125 0 L 0.359375 0 L 22.84375 -54.078125 L 32.21875 -54.078125 Z M 27.171875 -40.015625 L 18.46875 -18.71875 L 36.59375 -18.71875 L 27.859375 -40.015625 L 27.609375 -41.328125 L 27.5 -41.328125 Z M 27.171875 -40.015625 "/></g></g></g><g fill="#303b31" fill-opacity="1"><g transform="translate(617.524502, 1105.999444)"><g><path d="M 15.78125 14.65625 L 6.4375 14.65625 L 6.4375 -64.046875 L 15.78125 -64.046875 Z M 15.78125 14.65625 "/></g></g></g><g fill="#303b31" fill-opacity="1"><g transform="translate(106.273204, 1208.749435)"><g><path d="M 16.328125 0 L 6.4375 0 L 6.4375 -54.03125 L 16.328125 -54.03125 Z M 16.328125 0 "/></g></g></g><g fill="#303b31" fill-opacity="1"><g transform="translate(129.000985, 1208.749435)"><g><path d="M 16.328125 0 L 6.4375 0 L 6.4375 -54.03125 L 14.9375 -54.03125 L 44.375 -16.21875 L 44.375 -54.03125 L 54.234375 -54.03125 L 54.234375 0 L 45.78125 0 L 16.328125 -37.78125 Z M 16.328125 0 "/></g></g></g><g fill="#303b31" fill-opacity="1"><g transform="translate(189.674625, 1208.749435)"><g><path d="M 24.671875 1.234375 C 20.773438 1.234375 17.4375 0.734375 14.65625 -0.265625 C 11.875 -1.273438 9.601562 -2.617188 7.84375 -4.296875 C 6.082031 -5.984375 4.785156 -7.859375 3.953125 -9.921875 C 3.117188 -11.992188 2.703125 -14.09375 2.703125 -16.21875 L 12.59375 -16.21875 C 12.59375 -14.539062 13.0625 -13.015625 14 -11.640625 C 14.945312 -10.265625 16.320312 -9.164062 18.125 -8.34375 C 19.925781 -7.519531 22.097656 -7.109375 24.640625 -7.109375 C 32.660156 -7.109375 36.671875 -9.796875 36.671875 -15.171875 C 36.671875 -16.847656 36.15625 -18.207031 35.125 -19.25 C 34.09375 -20.300781 32.648438 -21.148438 30.796875 -21.796875 C 28.941406 -22.441406 26.753906 -23.003906 24.234375 -23.484375 C 22.429688 -23.847656 20.582031 -24.296875 18.6875 -24.828125 C 16.800781 -25.359375 14.988281 -26.019531 13.25 -26.8125 C 11.519531 -27.613281 9.960938 -28.597656 8.578125 -29.765625 C 7.203125 -30.929688 6.109375 -32.332031 5.296875 -33.96875 C 4.492188 -35.613281 4.09375 -37.5625 4.09375 -39.8125 C 4.09375 -42.75 4.800781 -45.382812 6.21875 -47.71875 C 7.632812 -50.050781 9.835938 -51.898438 12.828125 -53.265625 C 15.828125 -54.628906 19.65625 -55.3125 24.3125 -55.3125 C 28.820312 -55.3125 32.578125 -54.632812 35.578125 -53.28125 C 38.585938 -51.925781 40.851562 -50.03125 42.375 -47.59375 C 43.894531 -45.164062 44.65625 -42.332031 44.65625 -39.09375 L 34.765625 -39.09375 C 34.765625 -40.5 34.394531 -41.769531 33.65625 -42.90625 C 32.914062 -44.050781 31.769531 -44.957031 30.21875 -45.625 C 28.664062 -46.300781 26.660156 -46.640625 24.203125 -46.640625 C 22.160156 -46.640625 20.476562 -46.445312 19.15625 -46.0625 C 17.832031 -45.6875 16.789062 -45.164062 16.03125 -44.5 C 15.28125 -43.84375 14.75 -43.101562 14.4375 -42.28125 C 14.132812 -41.457031 13.984375 -40.625 13.984375 -39.78125 C 13.984375 -37.519531 15.109375 -35.789062 17.359375 -34.59375 C 19.609375 -33.40625 23 -32.441406 27.53125 -31.703125 C 30.019531 -31.253906 32.410156 -30.640625 34.703125 -29.859375 C 36.992188 -29.078125 39.039062 -28.054688 40.84375 -26.796875 C 42.644531 -25.535156 44.066406 -23.953125 45.109375 -22.046875 C 46.160156 -20.140625 46.6875 -17.835938 46.6875 -15.140625 C 46.6875 -11.640625 45.78125 -8.671875 43.96875 -6.234375 C 42.15625 -3.796875 39.597656 -1.941406 36.296875 -0.671875 C 32.992188 0.597656 29.117188 1.234375 24.671875 1.234375 Z M 24.671875 1.234375 "/></g></g></g><g fill="#303b31" fill-opacity="1"><g transform="translate(238.865172, 1208.749435)"><g><path d="M 27.65625 0 L 17.796875 0 L 17.796875 -45.21875 L 1.703125 -45.21875 L 1.703125 -54.03125 L 43.75 -54.03125 L 43.75 -45.21875 L 27.65625 -45.21875 Z M 27.65625 0 "/></g></g></g><g fill="#303b31" fill-opacity="1"><g transform="translate(284.320735, 1208.749435)"><g><path d="M 54.71875 0 L 44.265625 0 L 39.96875 -10.453125 L 15.09375 -10.453125 L 10.8125 0 L 0.359375 0 L 22.84375 -54.078125 L 32.21875 -54.078125 Z M 27.171875 -40.015625 L 18.46875 -18.71875 L 36.59375 -18.71875 L 27.859375 -40.015625 L 27.609375 -41.328125 L 27.5 -41.328125 Z M 27.171875 -40.015625 "/></g></g></g><g fill="#303b31" fill-opacity="1"><g transform="translate(339.43163, 1208.749435)"><g><path d="M 16.328125 0 L 6.4375 0 L 6.4375 -54.03125 L 14.9375 -54.03125 L 44.375 -16.21875 L 44.375 -54.03125 L 54.234375 -54.03125 L 54.234375 0 L 45.78125 0 L 16.328125 -37.78125 Z M 16.328125 0 "/></g></g></g><g fill="#303b31" fill-opacity="1"><g transform="translate(400.10527, 1208.749435)"><g><path d="M 27.65625 0 L 17.796875 0 L 17.796875 -45.21875 L 1.703125 -45.21875 L 1.703125 -54.03125 L 43.75 -54.03125 L 43.75 -45.21875 L 27.65625 -45.21875 Z M 27.65625 0 "/></g></g></g><g fill="#303b31" fill-opacity="1"><g transform="translate(445.560833, 1208.749435)"><g/></g></g><g fill="#303b31" fill-opacity="1"><g transform="translate(465.38804, 1208.749435)"><g><path d="M 16.328125 0 L 6.4375 0 L 6.4375 -54.03125 L 29.765625 -54.03125 C 32.492188 -54.03125 35.003906 -53.613281 37.296875 -52.78125 C 39.585938 -51.945312 41.566406 -50.75 43.234375 -49.1875 C 44.898438 -47.625 46.195312 -45.765625 47.125 -43.609375 C 48.050781 -41.453125 48.515625 -39.0625 48.515625 -36.4375 C 48.515625 -33.894531 48.054688 -31.578125 47.140625 -29.484375 C 46.234375 -27.390625 44.957031 -25.59375 43.3125 -24.09375 C 41.664062 -22.601562 39.734375 -21.472656 37.515625 -20.703125 L 49.75 0 L 38.390625 0 L 27.6875 -19.1875 C 27.34375 -19.164062 27 -19.15625 26.65625 -19.15625 C 26.3125 -19.15625 25.957031 -19.15625 25.59375 -19.15625 L 16.328125 -19.15625 Z M 16.328125 -45.21875 L 16.328125 -27.5 L 29.40625 -27.5 C 31.15625 -27.519531 32.722656 -27.90625 34.109375 -28.65625 C 35.503906 -29.414062 36.601562 -30.460938 37.40625 -31.796875 C 38.21875 -33.140625 38.625 -34.6875 38.625 -36.4375 C 38.625 -38.082031 38.210938 -39.566406 37.390625 -40.890625 C 36.566406 -42.210938 35.457031 -43.265625 34.0625 -44.046875 C 32.675781 -44.828125 31.109375 -45.21875 29.359375 -45.21875 Z M 16.328125 -45.21875 "/></g></g></g><g fill="#303b31" fill-opacity="1"><g transform="translate(516.843419, 1208.749435)"><g><path d="M 43.828125 0 L 6.4375 0 L 6.4375 -54.03125 L 43.46875 -54.03125 L 43.46875 -45.171875 L 16.328125 -45.171875 L 16.328125 -31.625 L 39.78125 -31.625 L 39.78125 -23.28125 L 16.328125 -23.28125 L 16.328125 -8.859375 L 43.828125 -8.859375 Z M 43.828125 0 "/></g></g></g><g fill="#303b31" fill-opacity="1"><g transform="translate(563.252595, 1208.749435)"><g><path d="M 16.328125 0 L 6.4375 0 L 6.4375 -54.03125 L 29.203125 -54.03125 C 31.929688 -54.03125 34.441406 -53.582031 36.734375 -52.6875 C 39.023438 -51.789062 41.003906 -50.523438 42.671875 -48.890625 C 44.335938 -47.265625 45.632812 -45.335938 46.5625 -43.109375 C 47.488281 -40.890625 47.953125 -38.46875 47.953125 -35.84375 C 47.953125 -33.0625 47.492188 -30.53125 46.578125 -28.25 C 45.671875 -25.96875 44.390625 -24.003906 42.734375 -22.359375 C 41.078125 -20.722656 39.109375 -19.460938 36.828125 -18.578125 C 34.554688 -17.691406 32.066406 -17.25 29.359375 -17.25 L 16.328125 -17.25 Z M 16.328125 -45.21875 L 16.328125 -26.0625 L 28.890625 -26.0625 C 30.609375 -26.0625 32.160156 -26.488281 33.546875 -27.34375 C 34.941406 -28.207031 36.039062 -29.375 36.84375 -30.84375 C 37.65625 -32.320312 38.0625 -33.988281 38.0625 -35.84375 C 38.0625 -37.476562 37.648438 -39.007812 36.828125 -40.4375 C 36.015625 -41.875 34.910156 -43.03125 33.515625 -43.90625 C 32.117188 -44.78125 30.550781 -45.21875 28.8125 -45.21875 Z M 16.328125 -45.21875 "/></g></g></g><g fill="#303b31" fill-opacity="1"><g transform="translate(612.443142, 1208.749435)"><g><path d="M 40.734375 0 L 6.4375 0 L 6.4375 -54.03125 L 16.328125 -54.03125 L 16.328125 -8.859375 L 40.734375 -8.859375 Z M 40.734375 0 "/></g></g></g><g fill="#303b31" fill-opacity="1"><g transform="translate(654.759727, 1208.749435)"><g><path d="M 31.75 0 L 21.859375 0 L 21.859375 -20.546875 L 0.59375 -54.03125 L 12.125 -54.03125 L 26.828125 -29.359375 L 26.859375 -29.359375 L 41.4375 -54.03125 L 53.078125 -54.03125 L 31.75 -20.625 Z M 31.75 0 "/></g></g></g></svg>